<svg width="80" height="80" viewBox="0 0 80 80" fill="none" xmlns="http://www.w3.org/2000/svg">
<rect width="80" height="80" rx="10" fill="#FFE492"/>
<path d="M40 22.1429C35.7477 22.1429 31.5909 23.3996 28.0552 25.7542C24.5196 28.1088 21.7639 31.4555 20.1366 35.3711C18.5093 39.2866 18.0835 43.5952 18.9131 47.7519C19.7427 51.9087 21.7904 55.7269 24.7972 58.7237C27.804 61.7206 31.635 63.7614 35.8056 64.5882C39.9762 65.4151 44.2991 64.9907 48.2277 63.3688C52.1563 61.747 55.5141 59.0004 57.8766 55.4765C60.239 51.9526 61.5 47.8096 61.5 43.5714C61.4935 37.8902 59.2262 32.4435 55.1956 28.4263C51.165 24.4091 45.7002 22.1494 40 22.1429ZM40 61.4286C36.4564 61.4286 32.9924 60.3813 30.046 58.4191C27.0997 56.4569 24.8032 53.668 23.4472 50.4051C22.0911 47.1421 21.7363 43.5516 22.4276 40.0877C23.1189 36.6237 24.8253 33.4419 27.331 30.9445C29.8367 28.4472 33.0291 26.7464 36.5046 26.0574C39.9801 25.3684 43.5826 25.722 46.8564 27.0736C50.1303 28.4251 52.9285 30.7139 54.8972 33.6505C56.8659 36.5871 57.9167 40.0396 57.9167 43.5714C57.9113 48.3058 56.022 52.8447 52.6631 56.1925C49.3042 59.5402 44.7502 61.4232 40 61.4286ZM50.2259 33.3795C50.3925 33.5453 50.5247 33.7423 50.6148 33.959C50.705 34.1758 50.7514 34.4082 50.7514 34.6429C50.7514 34.8775 50.705 35.1099 50.6148 35.3267C50.5247 35.5435 50.3925 35.7404 50.2259 35.9062L41.2676 44.8348C41.1011 45.0007 40.9035 45.1323 40.686 45.2221C40.4685 45.3119 40.2354 45.3581 40 45.3581C39.7646 45.3581 39.5315 45.3119 39.314 45.2221C39.0965 45.1323 38.8989 45.0007 38.7324 44.8348C38.5659 44.6689 38.4339 44.4719 38.3438 44.2552C38.2537 44.0384 38.2073 43.8061 38.2073 43.5714C38.2073 43.3368 38.2537 43.1045 38.3438 42.8877C38.4339 42.6709 38.5659 42.4739 38.7324 42.308L47.6907 33.3795C47.8571 33.2134 48.0547 33.0817 48.2722 32.9919C48.4897 32.902 48.7229 32.8557 48.9583 32.8557C49.1938 32.8557 49.4269 32.902 49.6444 32.9919C49.8619 33.0817 50.0595 33.2134 50.2259 33.3795ZM32.8333 16.7857C32.8333 16.3121 33.0221 15.8579 33.3581 15.523C33.6941 15.1881 34.1498 15 34.625 15H45.375C45.8502 15 46.3059 15.1881 46.6419 15.523C46.9779 15.8579 47.1667 16.3121 47.1667 16.7857C47.1667 17.2593 46.9779 17.7135 46.6419 18.0484C46.3059 18.3833 45.8502 18.5714 45.375 18.5714H34.625C34.1498 18.5714 33.6941 18.3833 33.3581 18.0484C33.0221 17.7135 32.8333 17.2593 32.8333 16.7857Z" fill="#785C06"/>
</svg>
