<svg width="585" height="87" viewBox="0 0 585 87" fill="none" xmlns="http://www.w3.org/2000/svg">
<path d="M254.939 0.0012593H22.0708C21.2219 0.0012593 20.3833 0.0012593 19.5367 0.00560924C18.828 0.00995917 18.125 0.0225957 17.4095 0.0332313C15.8552 0.0504175 14.3045 0.178903 12.7709 0.41757C11.2395 0.661433 9.75607 1.12118 8.37078 1.78128C6.98718 2.44695 5.72295 3.31193 4.62395 4.34482C3.51918 5.37482 2.59826 6.56535 1.89662 7.87064C1.19304 9.17334 0.705178 10.5693 0.449879 12.0103C0.192153 13.4495 0.0534678 14.9053 0.035069 16.3646C0.0135878 17.0314 0.0113193 17.7005 0 18.3674V68.6402C0.0113193 69.3156 0.0135878 69.9698 0.035069 70.6453C0.0534735 72.1046 0.192158 73.5603 0.449879 74.9994C0.704473 76.4412 1.19237 77.838 1.89662 79.1412C2.59794 80.4423 3.51899 81.628 4.62395 82.6522C5.71879 83.6897 6.98383 84.5553 8.37078 85.2159C9.75606 85.8777 11.2393 86.3402 12.7709 86.5878C14.3047 86.8246 15.8553 86.9531 17.4095 86.9724C18.125 86.9872 18.828 86.9957 19.5367 86.9957C20.3833 87 21.222 87 22.0708 87H254.939C255.771 87 256.616 87 257.448 86.9957C258.153 86.9957 258.876 86.9872 259.582 86.9724C261.133 86.9542 262.681 86.8256 264.211 86.5878C265.748 86.3385 267.236 85.8761 268.628 85.2159C270.014 84.5549 271.278 83.6894 272.372 82.6522C273.474 81.624 274.397 80.4391 275.107 79.1412C275.806 77.8371 276.289 76.4404 276.54 74.9994C276.798 73.5601 276.942 72.1047 276.97 70.6453C276.979 69.9698 276.979 69.3156 276.979 68.6402C276.997 67.8501 276.997 67.0642 276.997 66.2612V20.742C276.997 19.9455 276.997 19.1554 276.979 18.3674C276.979 17.7005 276.979 17.0314 276.97 16.3645C276.942 14.9051 276.798 13.4496 276.54 12.0102C276.289 10.57 275.805 9.1742 275.107 7.87056C273.678 5.25423 271.412 3.12457 268.628 1.78108C267.236 1.1226 265.748 0.662973 264.211 0.417374C262.681 0.177655 261.133 0.0491255 259.582 0.0329268C258.876 0.022313 258.153 0.00956768 257.448 0.00532649C256.616 0.000976552 255.771 0.000976552 254.939 0.000976552V0.0012593Z" fill="#373737"/>
<path d="M19.5476 85.0968C18.8424 85.0968 18.1541 85.0883 17.4544 85.0735C16.0048 85.0558 14.5587 84.9372 13.1277 84.7188C11.7935 84.5029 10.5009 84.1013 9.29274 83.5271C8.09563 82.9578 7.00376 82.2112 6.05898 81.3161C5.10052 80.4315 4.30256 79.4055 3.69672 78.2787C3.0842 77.1447 2.6603 75.9291 2.43979 74.6744C2.20165 73.3261 2.07281 71.9629 2.05437 70.5963C2.0397 70.1376 2.02049 68.6103 2.02049 68.6103V18.3673C2.02049 18.3673 2.04095 16.8636 2.05449 16.4218C2.07214 15.0574 2.20023 13.6962 2.43766 12.3501C2.65858 11.0919 3.0828 9.87281 3.69565 8.73505C4.29927 7.6091 5.0928 6.58233 6.04548 5.69455C6.9971 4.79834 8.09245 4.04793 9.2916 3.47071C10.497 2.89844 11.7871 2.49964 13.1187 2.28766C14.5543 2.06704 16.0055 1.94777 17.4601 1.93083L19.5488 1.90428H257.436L259.55 1.9319C260.991 1.94799 262.429 2.0662 263.852 2.28553C265.197 2.50016 266.5 2.90175 267.719 3.47708C270.122 4.64036 272.076 6.48076 273.31 8.74035C273.913 9.87027 274.33 11.0794 274.548 12.3267C274.789 13.6839 274.923 15.0557 274.951 16.4313C274.957 17.0473 274.957 17.7089 274.957 18.3673C274.976 19.183 274.976 19.9593 274.976 20.742V66.2612C274.976 67.0513 274.976 67.8224 274.957 68.5997C274.957 69.307 274.957 69.9549 274.948 70.6218C274.921 71.9728 274.789 73.3202 274.553 74.6531C274.337 75.9168 273.915 77.1419 273.303 78.2852C272.693 79.3997 271.899 80.4169 270.952 81.2991C270.006 82.1991 268.913 82.95 267.713 83.523C266.497 84.1015 265.195 84.5047 263.852 84.7188C262.421 84.9384 260.974 85.057 259.525 85.0735C258.847 85.0883 258.137 85.0968 257.447 85.0968L254.938 85.1012L19.5476 85.0968Z" fill="white"/>
<path d="M133.37 51.6897C128.909 51.6897 125.265 54.7999 125.265 59.0912C125.265 63.3476 128.909 66.4904 133.37 66.4904C137.841 66.4904 141.485 63.3476 141.485 59.0912C141.485 54.7999 137.841 51.6897 133.37 51.6897ZM133.37 63.5759C130.922 63.5759 128.817 61.725 128.817 59.0912C128.817 56.4225 130.922 54.6042 133.37 54.6042C135.818 54.6042 137.933 56.4225 137.933 59.0912C137.933 61.725 135.818 63.5759 133.37 63.5759ZM115.685 51.6897C111.215 51.6897 107.58 54.7999 107.58 59.0912C107.58 63.3476 111.215 66.4904 115.685 66.4904C120.153 66.4904 123.79 63.3476 123.79 59.0912C123.79 54.7999 120.153 51.6897 115.685 51.6897ZM115.685 63.5759C113.235 63.5759 111.122 61.725 111.122 59.0912C111.122 56.4225 113.235 54.6042 115.685 54.6042C118.133 54.6042 120.239 56.4225 120.239 59.0912C120.239 61.725 118.133 63.5759 115.685 63.5759ZM94.6408 53.9582V57.1032H102.839C102.599 58.8606 101.958 60.1525 100.975 61.053C99.7784 62.1405 97.9147 63.3476 94.6408 63.3476C89.5957 63.3476 85.6452 59.6175 85.6452 54.9957C85.6452 50.3739 89.5957 46.6438 94.6408 46.6438C97.3687 46.6438 99.3534 47.6204 100.818 48.8862L103.238 46.6699C101.189 44.8777 98.4631 43.501 94.6408 43.501C87.7225 43.501 81.9083 48.6578 81.9083 54.9957C81.9083 61.3335 87.7225 66.4904 94.6408 66.4904C98.38 66.4904 101.189 65.3681 103.397 63.2627C105.659 61.19 106.364 58.2755 106.364 55.9222C106.364 55.1914 106.298 54.5194 106.179 53.9582H94.6408ZM180.694 56.3964C180.027 54.7412 177.968 51.6897 173.776 51.6897C169.621 51.6897 166.162 54.689 166.162 59.0912C166.162 63.2366 169.585 66.4904 174.174 66.4904C177.885 66.4904 180.027 64.4176 180.908 63.2105L178.154 61.5293C177.235 62.7603 175.984 63.5759 174.174 63.5759C172.377 63.5759 171.088 62.8212 170.262 61.3335L181.067 57.2381L180.694 56.3964ZM169.678 58.8606C169.585 56.007 172.097 54.5455 173.897 54.5455C175.307 54.5455 176.503 55.1914 176.902 56.1158L169.678 58.8606ZM160.896 66.0402H164.448V44.2905H160.896V66.0402ZM155.079 53.3384H154.961C154.163 52.4727 152.641 51.6897 150.713 51.6897C146.668 51.6897 142.969 54.9435 142.969 59.1151C142.969 63.2627 146.668 66.4904 150.713 66.4904C152.641 66.4904 154.163 65.7009 154.961 64.8091H155.079V65.8705C155.079 68.7002 153.429 70.2205 150.768 70.2205C148.598 70.2205 147.252 68.785 146.696 67.5779L143.607 68.7589C144.498 70.7207 146.855 73.1349 150.768 73.1349C154.932 73.1349 158.446 70.8904 158.446 65.429V52.14H155.079V53.3384ZM151.017 63.5759C148.569 63.5759 146.52 61.6989 146.52 59.1151C146.52 56.5073 148.569 54.6042 151.017 54.6042C153.429 54.6042 155.331 56.5073 155.331 59.1151C155.331 61.6989 153.429 63.5759 151.017 63.5759ZM197.322 44.2905H188.828V66.0402H192.37V57.7992H197.322C201.256 57.7992 205.114 55.1914 205.114 51.0438C205.114 46.8983 201.247 44.2905 197.322 44.2905ZM197.415 54.7738H192.37V47.3159H197.415C200.06 47.3159 201.57 49.3277 201.57 51.0438C201.57 52.7272 200.06 54.7738 197.415 54.7738ZM219.312 51.6484C216.752 51.6484 214.091 52.6837 212.996 54.9783L216.14 56.1854C216.816 54.9783 218.06 54.5868 219.376 54.5868C221.213 54.5868 223.077 55.5982 223.105 57.3838V57.6122C222.464 57.2729 221.092 56.7705 219.404 56.7705C216.019 56.7705 212.569 58.4778 212.569 61.6641C212.569 64.5786 215.342 66.4556 218.459 66.4556C220.843 66.4556 222.158 65.4703 222.984 64.3241H223.105V66.0054H226.527V57.6622C226.527 53.806 223.383 51.6484 219.312 51.6484ZM218.884 63.5672C217.726 63.5672 216.111 63.0409 216.111 61.725C216.111 60.0416 218.125 59.3956 219.867 59.3956C221.427 59.3956 222.158 59.711 223.105 60.1264C222.828 62.1405 220.936 63.5672 218.884 63.5672ZM238.991 52.1247L234.919 61.5532H234.798L230.589 52.1247H226.769L233.093 65.3007L229.485 72.6325H233.186L242.932 52.1247H238.991ZM207.061 66.0402H210.613V44.2905H207.061V66.0402Z" fill="black"/>
<path d="M87.5594 18.9911C88.4612 18.9303 89.3662 19.0583 90.2091 19.3659C91.0519 19.6735 91.8116 20.153 92.4333 20.7699C93.055 21.3868 93.5233 22.1256 93.8043 22.9331C94.0853 23.7406 94.1721 24.5967 94.0584 25.4395C94.0584 29.5855 91.6735 31.9688 87.5594 31.9688H82.5704V18.9911H87.5594ZM84.7156 30.1334H87.3197C87.9642 30.1696 88.6091 30.0704 89.2076 29.8428C89.806 29.6153 90.343 29.2652 90.7793 28.8181C91.2156 28.371 91.5403 27.8381 91.7298 27.2583C91.9193 26.6784 91.9688 26.0661 91.8747 25.466C91.962 24.8682 91.9075 24.2597 91.7151 23.6841C91.5227 23.1084 91.1971 22.5799 90.7618 22.1364C90.3265 21.6928 89.7921 21.3453 89.197 21.1185C88.602 20.8918 87.9609 20.7916 87.3197 20.825H84.7156V30.1334Z" fill="black"/>
<path d="M96.4821 27.0676C96.4166 26.424 96.495 25.7746 96.7122 25.1611C96.9294 24.5477 97.2807 23.9836 97.7435 23.5051C98.2063 23.0267 98.7705 22.6444 99.3998 22.3828C100.029 22.1212 100.71 21.9861 101.398 21.9861C102.086 21.9861 102.766 22.1212 103.396 22.3828C104.025 22.6444 104.589 23.0267 105.052 23.5051C105.515 23.9836 105.866 24.5477 106.083 25.1611C106.3 25.7746 106.379 26.424 106.313 27.0676C106.38 27.7119 106.303 28.3622 106.086 28.9767C105.869 29.5911 105.518 30.1562 105.055 30.6356C104.592 31.115 104.028 31.4981 103.398 31.7603C102.768 32.0224 102.087 32.1579 101.398 32.1579C100.709 32.1579 100.027 32.0224 99.3975 31.7603C98.7676 31.4981 98.203 31.115 97.7401 30.6356C97.2772 30.1562 96.9261 29.5911 96.7094 28.9767C96.4928 28.3622 96.4154 27.7119 96.4821 27.0676ZM104.197 27.0676C104.197 24.9447 103.182 23.7032 101.401 23.7032C99.613 23.7032 98.6071 24.9447 98.6071 27.0677C98.6071 29.2076 99.613 30.4395 101.401 30.4395C103.182 30.4395 104.197 29.1991 104.197 27.0676H104.197Z" fill="black"/>
<path d="M119.381 31.9683H117.247L115.092 24.7552H114.93L112.784 31.9683H110.671L107.798 22.1746H109.884L111.751 29.6477H111.905L114.048 22.1746H116.021L118.164 29.6477H118.327L120.185 22.1746H122.242L119.381 31.9683Z" fill="black"/>
<path d="M124.659 22.174H126.639V23.7298H126.793C127.053 23.1711 127.493 22.7026 128.051 22.3899C128.608 22.0771 129.256 21.9355 129.903 21.985C130.41 21.9492 130.92 22.021 131.393 22.1952C131.867 22.3694 132.293 22.6415 132.639 22.9913C132.986 23.3412 133.244 23.7598 133.395 24.2161C133.546 24.6725 133.585 25.1549 133.511 25.6276V31.9677H131.454V26.113C131.454 24.5391 130.726 23.7564 129.205 23.7564C128.86 23.7413 128.517 23.7964 128.197 23.9178C127.877 24.0393 127.59 24.2242 127.353 24.4599C127.117 24.6956 126.937 24.9766 126.827 25.2836C126.717 25.5905 126.679 25.9162 126.716 26.2383V31.9678H124.659L124.659 22.174Z" fill="black"/>
<path d="M136.789 18.3514H138.847V31.9683H136.789V18.3514Z" fill="black"/>
<path d="M141.706 27.0668C141.641 26.4232 141.719 25.7738 141.936 25.1603C142.154 24.5467 142.505 23.9827 142.968 23.5042C143.431 23.0257 143.995 22.6434 144.624 22.3818C145.254 22.1202 145.934 21.9851 146.622 21.9851C147.31 21.9851 147.991 22.1202 148.62 22.3818C149.25 22.6434 149.814 23.0257 150.277 23.5042C150.74 23.9827 151.091 24.5467 151.308 25.1603C151.525 25.7738 151.604 26.4232 151.538 27.0668C151.605 27.7111 151.528 28.3614 151.311 28.9759C151.094 29.5904 150.743 30.1555 150.28 30.6348C149.817 31.1142 149.252 31.4973 148.622 31.7594C147.993 32.0216 147.311 32.157 146.622 32.157C145.933 32.157 145.252 32.0216 144.622 31.7594C143.992 31.4973 143.428 31.1142 142.965 30.6348C142.502 30.1555 142.15 29.5904 141.934 28.9759C141.717 28.3614 141.639 27.7111 141.706 27.0668ZM149.421 27.0668C149.421 24.9439 148.406 23.7024 146.625 23.7024C144.837 23.7024 143.831 24.9439 143.831 27.0669C143.831 29.2068 144.837 30.4387 146.625 30.4387C148.406 30.4387 149.421 29.1983 149.421 27.0668Z" fill="black"/>
<path d="M153.703 29.1982C153.703 27.4353 155.1 26.4189 157.58 26.2745L160.404 26.1216V25.2762C160.404 24.2418 159.676 23.6577 158.27 23.6577C157.121 23.6577 156.326 24.0539 156.097 24.7463H154.106C154.316 23.0641 156 21.9851 158.365 21.9851C160.978 21.9851 162.452 23.2074 162.452 25.2762V31.9679H160.471V30.5915H160.309C159.978 31.0852 159.514 31.4877 158.964 31.7579C158.414 32.028 157.798 32.1562 157.178 32.1292C156.74 32.172 156.298 32.1281 155.88 32.0005C155.461 31.8728 155.076 31.6642 154.748 31.388C154.421 31.1118 154.159 30.7743 153.979 30.3971C153.799 30.02 153.705 29.6115 153.703 29.1982ZM160.404 28.3613V27.5425L157.858 27.6954C156.423 27.7857 155.772 28.2445 155.772 29.1079C155.772 29.9893 156.586 30.5023 157.705 30.5023C158.032 30.5335 158.364 30.5024 158.678 30.4108C158.993 30.3193 159.285 30.1692 159.537 29.9694C159.789 29.7697 159.995 29.5243 160.144 29.2481C160.293 28.9718 160.381 28.6702 160.404 28.3613Z" fill="black"/>
<path d="M165.155 27.0672C165.155 23.9725 166.849 22.0121 169.482 22.0121C170.133 21.9839 170.78 22.1305 171.346 22.4348C171.912 22.739 172.374 23.1884 172.678 23.7303H172.832V18.3514H174.889V31.9683H172.918V30.4209H172.755C172.428 30.9592 171.949 31.403 171.372 31.7042C170.795 32.0054 170.142 32.1525 169.482 32.1297C166.83 32.1298 165.155 30.1693 165.155 27.0672ZM167.28 27.0672C167.28 29.1445 168.322 30.3944 170.065 30.3944C171.799 30.3944 172.871 29.1264 172.871 27.0757C172.871 25.0345 171.788 23.7485 170.065 23.7485C168.334 23.7485 167.28 25.0069 167.28 27.0672Z" fill="black"/>
<path d="M183.4 27.0667C183.335 26.423 183.413 25.7737 183.63 25.1602C183.847 24.5467 184.199 23.9826 184.661 23.5042C185.124 23.0257 185.688 22.6434 186.318 22.3818C186.947 22.1202 187.628 21.9851 188.316 21.9851C189.004 21.9851 189.684 22.1202 190.314 22.3818C190.943 22.6434 191.507 23.0257 191.97 23.5042C192.433 23.9826 192.784 24.5467 193.001 25.1602C193.218 25.7737 193.297 26.423 193.231 27.0667C193.298 27.7109 193.221 28.3612 193.004 28.9757C192.787 29.5902 192.436 30.1553 191.973 30.6347C191.51 31.1141 190.946 31.4971 190.316 31.7593C189.686 32.0215 189.005 32.1569 188.316 32.1569C187.627 32.1569 186.945 32.0215 186.315 31.7593C185.686 31.4971 185.121 31.1141 184.658 30.6347C184.195 30.1553 183.844 29.5902 183.627 28.9757C183.411 28.3612 183.333 27.7109 183.4 27.0667ZM191.115 27.0667C191.115 24.9437 190.1 23.7023 188.319 23.7023C186.531 23.7023 185.525 24.9437 185.525 27.0667C185.525 29.2066 186.531 30.4385 188.319 30.4385C190.1 30.4385 191.115 29.1981 191.115 27.0667Z" fill="black"/>
<path d="M195.992 22.174H197.972V23.7298H198.126C198.387 23.1711 198.826 22.7026 199.384 22.3899C199.942 22.0771 200.589 21.9355 201.236 21.985C201.744 21.9492 202.253 22.021 202.726 22.1952C203.2 22.3694 203.626 22.6415 203.972 22.9913C204.319 23.3412 204.577 23.7598 204.728 24.2161C204.879 24.6725 204.919 25.1549 204.844 25.6276V31.9677H202.787V26.113C202.787 24.5391 202.059 23.7564 200.538 23.7564C200.194 23.7413 199.85 23.7964 199.53 23.9178C199.211 24.0393 198.923 24.2242 198.686 24.4599C198.45 24.6956 198.271 24.9766 198.161 25.2836C198.051 25.5905 198.013 25.9162 198.049 26.2383V31.9678H195.992V22.174Z" fill="black"/>
<path d="M216.468 19.7361V22.219H218.726V23.8471H216.468V28.8831C216.468 29.909 216.917 30.3582 217.941 30.3582C218.204 30.3574 218.465 30.3425 218.726 30.3136V31.9236C218.356 31.9857 217.982 32.0187 217.607 32.0223C215.319 32.0223 214.408 31.2662 214.408 29.378V23.847H212.753V22.219H214.408V19.7361H216.468Z" fill="black"/>
<path d="M221.536 18.3514H223.575V23.7484H223.737C224.011 23.1844 224.463 22.7133 225.031 22.3994C225.6 22.0854 226.258 21.9439 226.916 21.994C227.42 21.9682 227.924 22.0474 228.393 22.2258C228.861 22.4042 229.281 22.6776 229.624 23.0263C229.967 23.375 230.224 23.7906 230.376 24.2433C230.528 24.6959 230.573 25.1746 230.505 25.6452V31.9683H228.446V26.122C228.446 24.5577 227.671 23.7654 226.217 23.7654C225.864 23.7382 225.508 23.7838 225.175 23.8992C224.842 24.0146 224.54 24.1969 224.291 24.4334C224.041 24.6699 223.849 24.9549 223.728 25.2684C223.608 25.5819 223.561 25.9163 223.593 26.2483V31.9682H221.536L221.536 18.3514Z" fill="black"/>
<path d="M242.5 29.3237C242.221 30.2187 241.615 30.993 240.79 31.511C239.964 32.0289 238.971 32.2576 237.984 32.1571C237.297 32.1741 236.615 32.0505 235.984 31.7949C235.353 31.5393 234.789 31.1577 234.331 30.6768C233.873 30.1958 233.532 29.6269 233.331 29.0096C233.13 28.3923 233.075 27.7414 233.169 27.102C233.077 26.4606 233.134 25.8083 233.334 25.1891C233.534 24.57 233.873 23.9984 234.329 23.5133C234.785 23.0281 235.346 22.6406 235.975 22.3769C236.604 22.1133 237.286 21.9798 237.975 21.9853C240.875 21.9853 242.625 23.847 242.625 26.9224V27.5969H235.264V27.7052C235.232 28.0646 235.28 28.4264 235.405 28.7673C235.531 29.1082 235.73 29.4208 235.992 29.6849C236.253 29.9491 236.57 30.159 236.923 30.3013C237.276 30.4435 237.656 30.5149 238.04 30.5109C238.532 30.5664 239.031 30.4832 239.472 30.2717C239.914 30.0603 240.279 29.7303 240.52 29.3236L242.5 29.3237ZM235.264 26.1674H240.529C240.555 25.8387 240.507 25.5085 240.389 25.1981C240.271 24.8877 240.086 24.6039 239.844 24.365C239.602 24.1261 239.31 23.9373 238.986 23.8107C238.663 23.6842 238.314 23.6228 237.963 23.6303C237.608 23.6261 237.254 23.6889 236.925 23.8149C236.595 23.9409 236.296 24.1277 236.044 24.3641C235.793 24.6006 235.594 24.8819 235.46 25.1916C235.326 25.5013 235.26 25.8331 235.264 26.1674H235.264Z" fill="black"/>
<path d="M52.5287 53.7533L29.6934 65.78L29.622 65.8126C28.812 66.2585 27.859 66.5086 26.8465 66.5086C24.3092 66.5086 22.177 64.9318 21.5576 62.8005C21.5496 62.7933 21.5457 62.7896 21.5457 62.7896L41.8437 43.1294L52.5287 53.7533Z" fill="#EA4335"/>
<path d="M65.2272 44.1729C65.2272 46.0759 64.0598 47.7396 62.3326 48.5878L52.529 53.753L41.3794 43.5749L52.4933 34.5494L62.3445 39.769L62.3683 39.7798C64.0717 40.628 65.2272 42.2809 65.2272 44.1729Z" fill="#FBBC04"/>
<path d="M42.5345 43.6291L21.5456 62.7891C21.4265 62.3759 21.3669 61.9518 21.3669 61.506V26.7635C21.3669 26.3176 21.4265 25.8827 21.5456 25.4694L42.5345 43.6291Z" fill="#4285F4"/>
<path d="M21.5457 25.4697C22.177 23.3275 24.3092 21.7507 26.8465 21.7507C27.8828 21.7507 28.8477 22.0226 29.6815 22.4684L52.493 34.5495L41.9866 44.1295L21.5457 25.4697Z" fill="#34A853"/>
<path d="M562.935 0.000282746H330.067C329.218 0.000282746 328.38 0.000282746 327.533 0.00463268C326.825 0.00898262 326.122 0.0216192 325.406 0.0322548C323.852 0.049441 322.301 0.177926 320.767 0.416593C319.236 0.660457 317.753 1.12021 316.367 1.7803C314.984 2.44597 313.719 3.31095 312.62 4.34385C311.516 5.37384 310.595 6.56437 309.893 7.86967C309.19 9.17236 308.702 10.5683 308.446 12.0093C308.189 13.4485 308.05 14.9043 308.032 16.3636C308.01 17.0305 308.008 17.6995 307.997 18.3665V68.6392C308.008 69.3146 308.01 69.9688 308.032 70.6443C308.05 72.1036 308.189 73.5593 308.446 74.9984C308.701 76.4403 309.189 77.837 309.893 79.1402C310.594 80.4413 311.516 81.627 312.62 82.6513C313.715 83.6888 314.98 84.5543 316.367 85.2149C317.753 85.8768 319.236 86.3392 320.767 86.5869C322.301 86.8236 323.852 86.9522 325.406 86.9714C326.122 86.9862 326.825 86.9947 327.533 86.9947C328.38 86.999 329.219 86.999 330.067 86.999H562.935C563.767 86.999 564.612 86.999 565.444 86.9947C566.15 86.9947 566.873 86.9862 567.578 86.9714C569.13 86.9532 570.677 86.8246 572.208 86.5869C573.744 86.3375 575.233 85.8751 576.625 85.2149C578.011 84.5539 579.275 83.6884 580.368 82.6513C581.471 81.623 582.394 80.4381 583.104 79.1402C583.803 77.8361 584.286 76.4394 584.537 74.9984C584.795 73.5591 584.938 72.1037 584.966 70.6443C584.975 69.9688 584.975 69.3146 584.975 68.6392C584.993 67.8491 584.993 67.0633 584.993 66.2603V20.7411C584.993 19.9446 584.993 19.1544 584.975 18.3665C584.975 17.6995 584.975 17.0305 584.966 16.3635C584.938 14.9041 584.795 13.4486 584.537 12.0092C584.285 10.5691 583.802 9.17322 583.104 7.86958C581.675 5.25326 579.409 3.12359 576.625 1.7801C575.233 1.12163 573.744 0.661996 572.208 0.416398C570.678 0.176679 569.13 0.0481489 567.578 0.0319503C566.873 0.0213364 566.15 0.00859113 565.444 0.00434994C564.612 0 563.767 0 562.935 0V0.000282746Z" fill="#373737"/>
<path d="M327.544 85.0958C326.839 85.0958 326.151 85.0874 325.451 85.0726C324.001 85.0548 322.555 84.9363 321.124 84.7178C319.79 84.5019 318.497 84.1003 317.289 83.5262C316.092 82.9568 315 82.2103 314.056 81.3151C313.097 80.4305 312.299 79.4045 311.693 78.2778C311.081 77.1437 310.657 75.9281 310.436 74.6734C310.198 73.3252 310.069 71.9619 310.051 70.5953C310.036 70.1366 310.017 68.6094 310.017 68.6094V18.3664C310.017 18.3664 310.037 16.8626 310.051 16.4208C310.069 15.0564 310.197 13.6952 310.434 12.3491C310.655 11.0909 311.079 9.87184 311.692 8.73407C312.296 7.60812 313.089 6.58135 314.042 5.69357C314.994 4.79736 316.089 4.04696 317.288 3.46973C318.494 2.89746 319.784 2.49866 321.115 2.28668C322.551 2.06607 324.002 1.94679 325.457 1.92986L327.545 1.9033H565.433L567.546 1.93092C568.988 1.94701 570.426 2.06523 571.848 2.28455C573.193 2.49919 574.497 2.90077 575.716 3.47611C578.118 4.63938 580.073 6.47979 581.306 8.73938C581.909 9.86929 582.327 11.0784 582.545 12.3257C582.785 13.6829 582.92 15.0548 582.947 16.4303C582.954 17.0463 582.954 17.7079 582.954 18.3664C582.972 19.182 582.972 19.9583 582.972 20.741V66.2602C582.972 67.0503 582.972 67.8214 582.954 68.5987C582.954 69.306 582.954 69.9539 582.945 70.6208C582.918 71.9718 582.786 73.3192 582.549 74.6521C582.333 75.9159 581.912 77.1409 581.299 78.2843C580.689 79.3988 579.896 80.4159 578.948 81.2981C578.003 82.1981 576.909 82.949 575.709 83.522C574.493 84.1006 573.192 84.5037 571.848 84.7178C570.417 84.9374 568.971 85.056 567.521 85.0726C566.843 85.0874 566.133 85.0958 565.444 85.0958L562.935 85.1002L327.544 85.0958Z" fill="white"/>
<path d="M365.331 44.1547C365.356 42.3394 365.869 40.5594 366.823 38.9805C367.777 37.4016 369.14 36.075 370.786 35.1241C369.74 33.7209 368.361 32.5661 366.757 31.7515C365.153 30.9369 363.369 30.4848 361.547 30.4312C357.66 30.0479 353.892 32.6167 351.911 32.6167C349.892 32.6167 346.842 30.4693 343.558 30.5328C341.434 30.5973 339.364 31.1777 337.549 32.2174C335.735 33.2572 334.238 34.7209 333.204 36.4658C328.727 43.7485 332.067 54.4517 336.355 60.3384C338.501 63.221 341.008 66.441 344.289 66.3268C347.5 66.2017 348.699 64.4031 352.575 64.4031C356.415 64.4031 357.54 66.3268 360.887 66.2542C364.333 66.2016 366.503 63.3588 368.574 60.4489C370.115 58.3949 371.301 56.1249 372.088 53.7228C370.087 52.9273 368.379 51.5959 367.177 49.8944C365.975 48.1929 365.333 46.1967 365.331 44.1547Z" fill="black"/>
<path d="M359.008 26.5595C360.887 24.4407 361.812 21.7172 361.588 18.9676C358.718 19.2508 356.067 20.5396 354.163 22.5772C353.232 23.5726 352.519 24.7306 352.065 25.9851C351.611 27.2395 351.424 28.5658 351.516 29.8881C352.951 29.902 354.371 29.6096 355.669 29.0331C356.967 28.4565 358.109 27.6108 359.008 26.5595Z" fill="black"/>
<path d="M405.917 59.0294H394.96L392.329 66.3296H387.688L398.066 39.3208H402.888L413.266 66.3296H408.546L405.917 59.0294ZM396.095 55.6608H404.78L400.499 43.8131H400.379L396.095 55.6608Z" fill="black"/>
<path d="M435.679 56.4847C435.679 62.6039 432.193 66.5354 426.933 66.5354C425.601 66.6009 424.275 66.3125 423.109 65.7032C421.943 65.0939 420.983 64.1884 420.339 63.0903H420.24V72.8437H415.938V46.6379H420.102V49.9131H420.181C420.854 48.8202 421.831 47.9194 423.006 47.3063C424.181 46.6933 425.511 46.3911 426.854 46.4318C432.173 46.4318 435.679 50.3825 435.679 56.4847ZM431.257 56.4847C431.257 52.498 429.065 49.8769 425.719 49.8769C422.432 49.8769 420.221 52.5532 420.221 56.4847C420.221 60.4523 422.432 63.1094 425.719 63.1094C429.065 63.1094 431.257 60.5075 431.257 56.4847Z" fill="black"/>
<path d="M458.746 56.4847C458.746 62.6039 455.26 66.5354 450 66.5354C448.668 66.6009 447.342 66.3125 446.176 65.7032C445.01 65.0939 444.05 64.1884 443.406 63.0903H443.307V72.8436H439.005V46.6378H443.169V49.913H443.248C443.921 48.8202 444.898 47.9193 446.073 47.3063C447.248 46.6933 448.578 46.3911 449.921 46.4318C455.24 46.4318 458.746 50.3824 458.746 56.4847ZM454.325 56.4847C454.325 52.498 452.132 49.8769 448.786 49.8769C445.499 49.8769 443.289 52.5532 443.289 56.4847C443.289 60.4523 445.499 63.1094 448.786 63.1094C452.132 63.1094 454.325 60.5075 454.325 56.4847H454.325Z" fill="black"/>
<path d="M473.991 58.8044C474.31 61.4828 477.079 63.2414 480.863 63.2414C484.489 63.2414 487.098 61.4827 487.098 59.0677C487.098 56.9713 485.524 55.7161 481.799 54.8558L478.074 54.0126C472.795 52.8147 470.345 50.4953 470.345 46.7316C470.345 42.0715 474.667 38.8707 480.804 38.8707C486.878 38.8707 491.042 42.0715 491.182 46.7316H486.84C486.58 44.0362 484.209 42.4092 480.743 42.4092C477.278 42.4092 474.907 44.0553 474.907 46.4512C474.907 48.3607 476.421 49.4843 480.126 50.3444L483.293 51.0751C489.191 52.3856 491.641 54.6116 491.641 58.5621C491.641 63.6151 487.358 66.7798 480.544 66.7798C474.17 66.7798 469.866 63.6894 469.588 58.8042L473.991 58.8044Z" fill="black"/>
<path d="M500.925 41.978V46.6381H504.911V49.8389H500.925V60.6947C500.925 62.3811 501.723 63.167 503.475 63.167C503.948 63.1592 504.421 63.128 504.89 63.0735V66.2552C504.103 66.3935 503.302 66.4561 502.501 66.4421C498.258 66.4421 496.603 64.9447 496.603 61.1258V49.8389H493.556V46.6381H496.603V41.978H500.925Z" fill="black"/>
<path d="M507.218 56.4849C507.218 50.2892 511.102 46.396 517.158 46.396C523.234 46.396 527.099 50.2892 527.099 56.4849C527.099 62.6976 523.254 66.5739 517.158 66.5739C511.063 66.5739 507.218 62.6976 507.218 56.4849ZM522.716 56.4849C522.716 52.2348 520.643 49.7264 517.157 49.7264C513.672 49.7264 511.601 52.2539 511.601 56.4849C511.601 60.752 513.672 63.2414 517.157 63.2414C520.643 63.2414 522.716 60.752 522.716 56.4849H522.716Z" fill="black"/>
<path d="M530.646 46.6386H534.749V49.9903H534.849C535.126 48.9435 535.779 48.0184 536.697 47.3705C537.615 46.7226 538.743 46.3914 539.89 46.4326C540.386 46.431 540.88 46.4816 541.364 46.5834V50.3641C540.738 50.1844 540.085 50.1019 539.431 50.1199C538.806 50.096 538.183 50.1996 537.605 50.4233C537.026 50.6471 536.506 50.9858 536.08 51.4162C535.655 51.8466 535.333 52.3585 535.137 52.9168C534.942 53.475 534.877 54.0664 534.948 54.6503V66.3302H530.646L530.646 46.6386Z" fill="black"/>
<path d="M561.198 60.546C560.619 64.1207 556.914 66.5739 552.174 66.5739C546.077 66.5739 542.293 62.7358 542.293 56.5784C542.293 50.4018 546.097 46.396 551.993 46.396C557.791 46.396 561.437 50.1384 561.437 56.109V57.4938H546.635V57.7381C546.567 58.4628 546.663 59.1928 546.919 59.8798C547.174 60.5667 547.581 61.1948 548.114 61.7224C548.648 62.2499 549.294 62.6648 550.011 62.9395C550.728 63.2142 551.499 63.3424 552.273 63.3157C553.29 63.4052 554.31 63.184 555.182 62.6849C556.054 62.1859 556.731 61.4357 557.113 60.546L561.198 60.546ZM546.656 54.6689H557.133C557.172 54.0173 557.067 53.3652 556.824 52.7536C556.582 52.142 556.208 51.584 555.725 51.1147C555.242 50.6454 554.662 50.275 554.019 50.0266C553.377 49.7781 552.687 49.6571 551.993 49.6712C551.292 49.6672 550.598 49.7937 549.95 50.0433C549.301 50.2928 548.712 50.6605 548.216 51.1252C547.72 51.5898 547.326 52.1422 547.059 52.7504C546.791 53.3587 546.654 54.0107 546.656 54.6689V54.6689Z" fill="black"/>
<path d="M395.556 18.9911C396.458 18.9303 397.363 19.0583 398.206 19.3659C399.048 19.6735 399.808 20.153 400.43 20.7699C401.052 21.3868 401.52 22.1256 401.801 22.9331C402.082 23.7406 402.169 24.5967 402.055 25.4395C402.055 29.5855 399.67 31.9688 395.556 31.9688H390.567V18.9911H395.556ZM392.712 30.1334H395.316C395.961 30.1696 396.606 30.0704 397.204 29.8428C397.803 29.6153 398.34 29.2652 398.776 28.8181C399.212 28.371 399.537 27.8381 399.726 27.2583C399.916 26.6784 399.965 26.0661 399.871 25.466C399.959 24.8682 399.904 24.2597 399.712 23.6841C399.519 23.1084 399.194 22.5799 398.758 22.1364C398.323 21.6928 397.789 21.3453 397.194 21.1185C396.599 20.8918 395.957 20.7916 395.316 20.825H392.712V30.1334Z" fill="black"/>
<path d="M404.479 27.0667C404.413 26.423 404.492 25.7737 404.709 25.1602C404.926 24.5467 405.277 23.9826 405.74 23.5042C406.203 23.0257 406.767 22.6434 407.396 22.3818C408.026 22.1202 408.706 21.9851 409.394 21.9851C410.082 21.9851 410.763 22.1202 411.392 22.3818C412.021 22.6434 412.586 23.0257 413.048 23.5042C413.511 23.9826 413.862 24.5467 414.08 25.1602C414.297 25.7737 414.375 26.423 414.31 27.0667C414.377 27.7109 414.299 28.3612 414.082 28.9757C413.866 29.5902 413.515 30.1553 413.052 30.6347C412.589 31.1141 412.024 31.4971 411.394 31.7593C410.764 32.0215 410.083 32.1569 409.394 32.1569C408.705 32.1569 408.024 32.0215 407.394 31.7593C406.764 31.4971 406.2 31.1141 405.737 30.6347C405.274 30.1553 404.923 29.5902 404.706 28.9757C404.489 28.3612 404.412 27.7109 404.479 27.0667ZM412.194 27.0667C412.194 24.9437 411.179 23.7023 409.398 23.7023C407.61 23.7023 406.604 24.9437 406.604 27.0667C406.604 29.2066 407.61 30.4385 409.398 30.4385C411.179 30.4385 412.194 29.1981 412.194 27.0667H412.194Z" fill="black"/>
<path d="M427.377 31.9683H425.243L423.089 24.7552H422.926L420.781 31.9683H418.667L415.794 22.1746H417.881L419.748 29.6477H419.902L422.045 22.1746H424.018L426.161 29.6477H426.324L428.182 22.1746H430.239L427.377 31.9683Z" fill="black"/>
<path d="M432.655 22.174H434.636V23.7298H434.789C435.05 23.1711 435.49 22.7026 436.047 22.3899C436.605 22.0771 437.253 21.9355 437.9 21.985C438.407 21.9492 438.916 22.021 439.39 22.1952C439.863 22.3694 440.289 22.6415 440.636 22.9913C440.982 23.3412 441.24 23.7598 441.391 24.2161C441.542 24.6725 441.582 25.1549 441.508 25.6276V31.9677H439.45V26.113C439.45 24.5391 438.723 23.7564 437.201 23.7564C436.857 23.7413 436.513 23.7964 436.194 23.9178C435.874 24.0393 435.586 24.2242 435.35 24.4599C435.113 24.6956 434.934 24.9766 434.824 25.2836C434.714 25.5905 434.676 25.9162 434.712 26.2383V31.9678H432.655L432.655 22.174Z" fill="black"/>
<path d="M444.786 18.3514H446.843V31.9683H444.786V18.3514Z" fill="black"/>
<path d="M449.703 27.0668C449.637 26.4232 449.716 25.7738 449.933 25.1603C450.15 24.5467 450.502 23.9827 450.964 23.5042C451.427 23.0257 451.991 22.6434 452.621 22.3818C453.25 22.1202 453.931 21.9851 454.619 21.9851C455.307 21.9851 455.988 22.1202 456.617 22.3818C457.246 22.6434 457.81 23.0257 458.273 23.5042C458.736 23.9827 459.087 24.5467 459.305 25.1603C459.522 25.7738 459.6 26.4232 459.535 27.0668C459.602 27.7111 459.524 28.3614 459.307 28.9759C459.091 29.5904 458.74 30.1555 458.277 30.6348C457.814 31.1142 457.249 31.4973 456.619 31.7594C455.989 32.0216 455.308 32.157 454.619 32.157C453.93 32.157 453.249 32.0216 452.619 31.7594C451.989 31.4973 451.424 31.1142 450.961 30.6348C450.498 30.1555 450.147 29.5904 449.93 28.9759C449.714 28.3614 449.636 27.7111 449.703 27.0668ZM457.418 27.0668C457.418 24.9439 456.403 23.7024 454.622 23.7024C452.834 23.7024 451.828 24.9439 451.828 27.0669C451.828 29.2068 452.834 30.4387 454.622 30.4387C456.403 30.4387 457.418 29.1983 457.418 27.0668H457.418Z" fill="black"/>
<path d="M461.7 29.1982C461.7 27.4353 463.097 26.4189 465.577 26.2745L468.4 26.1216V25.2762C468.4 24.2418 467.672 23.6577 466.266 23.6577C465.118 23.6577 464.322 24.0539 464.094 24.7463H462.102C462.312 23.0641 463.997 21.9851 466.361 21.9851C468.974 21.9851 470.448 23.2074 470.448 25.2762V31.9679H468.468V30.5915H468.305C467.975 31.0852 467.511 31.4877 466.961 31.7579C466.411 32.028 465.794 32.1562 465.174 32.1292C464.737 32.172 464.295 32.1281 463.876 32.0005C463.458 31.8728 463.072 31.6642 462.745 31.388C462.418 31.1118 462.156 30.7743 461.976 30.3971C461.796 30.02 461.702 29.6115 461.7 29.1982ZM468.4 28.3613V27.5425L465.855 27.6954C464.419 27.7857 463.768 28.2445 463.768 29.1079C463.768 29.9893 464.582 30.5023 465.701 30.5023C466.029 30.5335 466.36 30.5024 466.675 30.4108C466.99 30.3193 467.282 30.1692 467.534 29.9694C467.785 29.7697 467.992 29.5243 468.141 29.2481C468.29 28.9718 468.378 28.6702 468.4 28.3613Z" fill="black"/>
<path d="M473.152 27.0672C473.152 23.9725 474.845 22.0121 477.479 22.0121C478.13 21.9839 478.777 22.1305 479.343 22.4348C479.909 22.739 480.371 23.1884 480.675 23.7303H480.829V18.3514H482.886V31.9683H480.915V30.4209H480.752C480.424 30.9592 479.946 31.403 479.369 31.7042C478.792 32.0054 478.138 32.1525 477.479 32.1297C474.827 32.1298 473.152 30.1693 473.152 27.0672ZM475.277 27.0672C475.277 29.1445 476.319 30.3944 478.062 30.3944C479.796 30.3944 480.867 29.1264 480.867 27.0757C480.867 25.0345 479.784 23.7485 478.062 23.7485C476.33 23.7485 475.277 25.0069 475.277 27.0672H475.277Z" fill="black"/>
<path d="M491.397 27.0667C491.331 26.423 491.409 25.7737 491.627 25.1602C491.844 24.5467 492.195 23.9826 492.658 23.5042C493.121 23.0257 493.685 22.6434 494.314 22.3818C494.944 22.1202 495.624 21.9851 496.312 21.9851C497 21.9851 497.681 22.1202 498.31 22.3818C498.939 22.6434 499.503 23.0257 499.966 23.5042C500.429 23.9826 500.78 24.5467 500.998 25.1602C501.215 25.7737 501.293 26.423 501.228 27.0667C501.294 27.7109 501.217 28.3612 501 28.9757C500.784 29.5902 500.433 30.1553 499.97 30.6347C499.507 31.1141 498.942 31.4971 498.312 31.7593C497.682 32.0215 497.001 32.1569 496.312 32.1569C495.623 32.1569 494.942 32.0215 494.312 31.7593C493.682 31.4971 493.118 31.1141 492.655 30.6347C492.192 30.1553 491.841 29.5902 491.624 28.9757C491.407 28.3612 491.33 27.7109 491.397 27.0667ZM499.112 27.0667C499.112 24.9437 498.097 23.7023 496.316 23.7023C494.527 23.7023 493.522 24.9437 493.522 27.0667C493.522 29.2066 494.528 30.4385 496.316 30.4385C498.097 30.4385 499.112 29.1981 499.112 27.0667Z" fill="black"/>
<path d="M503.988 22.174H505.969V23.7298H506.122C506.383 23.1711 506.823 22.7026 507.381 22.3899C507.938 22.0771 508.586 21.9355 509.233 21.985C509.74 21.9492 510.249 22.021 510.723 22.1952C511.197 22.3694 511.622 22.6415 511.969 22.9913C512.315 23.3412 512.574 23.7598 512.725 24.2161C512.875 24.6725 512.915 25.1549 512.841 25.6276V31.9677H510.784V26.113C510.784 24.5391 510.056 23.7564 508.534 23.7564C508.19 23.7413 507.846 23.7964 507.527 23.9178C507.207 24.0393 506.919 24.2242 506.683 24.4599C506.447 24.6956 506.267 24.9766 506.157 25.2836C506.047 25.5905 506.009 25.9162 506.046 26.2383V31.9678H503.988V22.174Z" fill="black"/>
<path d="M524.464 19.7361V22.219H526.722V23.8471H524.464V28.8831C524.464 29.909 524.914 30.3582 525.938 30.3582C526.2 30.3574 526.462 30.3425 526.722 30.3136V31.9236C526.353 31.9857 525.979 32.0187 525.603 32.0223C523.316 32.0223 522.405 31.2662 522.405 29.378V23.847H520.75V22.219H522.405V19.7361H524.464Z" fill="black"/>
<path d="M529.532 18.3514H531.571V23.7484H531.734C532.007 23.1844 532.459 22.7133 533.028 22.3994C533.597 22.0854 534.255 21.9439 534.912 21.994C535.417 21.9682 535.921 22.0474 536.389 22.2258C536.857 22.4042 537.278 22.6776 537.621 23.0263C537.964 23.375 538.22 23.7906 538.373 24.2433C538.525 24.6959 538.569 25.1746 538.502 25.6452V31.9683H536.443V26.122C536.443 24.5577 535.667 23.7654 534.214 23.7654C533.86 23.7382 533.505 23.7838 533.172 23.8992C532.839 24.0146 532.537 24.1969 532.287 24.4334C532.037 24.6699 531.845 24.9549 531.725 25.2684C531.604 25.5819 531.558 25.9163 531.589 26.2483V31.9682H529.532L529.532 18.3514Z" fill="black"/>
<path d="M550.497 29.3237C550.217 30.2187 549.612 30.993 548.786 31.511C547.96 32.0289 546.967 32.2576 545.98 32.1571C545.294 32.1741 544.611 32.0505 543.98 31.7949C543.35 31.5393 542.786 31.1577 542.327 30.6768C541.869 30.1958 541.528 29.6269 541.327 29.0096C541.127 28.3923 541.071 27.7414 541.165 27.102C541.074 26.4606 541.13 25.8083 541.33 25.1891C541.531 24.57 541.87 23.9984 542.326 23.5133C542.781 23.0281 543.343 22.6406 543.972 22.3769C544.601 22.1133 545.283 21.9798 545.971 21.9853C548.871 21.9853 550.621 23.847 550.621 26.9224V27.5969H543.261V27.7052C543.229 28.0646 543.277 28.4264 543.402 28.7673C543.527 29.1082 543.727 29.4208 543.988 29.6849C544.25 29.9491 544.567 30.159 544.92 30.3013C545.272 30.4435 545.653 30.5149 546.037 30.5109C546.529 30.5664 547.027 30.4832 547.469 30.2717C547.91 30.0603 548.275 29.7303 548.517 29.3236L550.497 29.3237ZM543.261 26.1674H548.526C548.551 25.8387 548.504 25.5085 548.386 25.1981C548.268 24.8877 548.082 24.6039 547.841 24.365C547.599 24.1261 547.307 23.9373 546.983 23.8107C546.659 23.6842 546.311 23.6228 545.96 23.6303C545.604 23.6261 545.251 23.6889 544.921 23.8149C544.592 23.9409 544.293 24.1277 544.041 24.3641C543.789 24.6006 543.591 24.8819 543.457 25.1916C543.323 25.5013 543.256 25.8331 543.261 26.1674H543.261Z" fill="black"/>
</svg>
