<svg width="80" height="80" viewBox="0 0 80 80" fill="none" xmlns="http://www.w3.org/2000/svg">
<rect width="80" height="80" rx="10" fill="#34A853"/>
<path d="M55.829 32.6552C55.1238 24.4365 48.2477 18.125 39.9998 18.125C31.7519 18.125 24.8748 24.4375 24.1706 32.6552L23.6717 38.4781C23.4489 41.0767 22.6194 43.5867 21.2498 45.8062L19.7165 48.2896C18.1779 50.7823 19.0175 53.3583 21.9217 53.7448C25.2425 54.1875 30.7884 54.5833 39.9998 54.5833C49.2113 54.5833 54.7571 54.1875 58.0779 53.7458C60.9821 53.3594 61.8217 50.7833 60.2831 48.2906L58.7498 45.8073C57.38 43.5871 56.5504 41.0764 56.3279 38.4771L55.8279 32.6542L55.829 32.6552Z" stroke="white" stroke-width="1.5" stroke-linecap="round" stroke-linejoin="round"/>
<path d="M55.829 32.6552C55.1238 24.4365 48.2477 18.125 39.9998 18.125C31.7519 18.125 24.8748 24.4375 24.1706 32.6552L23.6717 38.4781C23.4489 41.0767 22.6194 43.5867 21.2498 45.8062L19.7165 48.2896C18.1779 50.7823 19.0175 53.3583 21.9217 53.7448C25.2425 54.1875 30.7884 54.5833 39.9998 54.5833C49.2113 54.5833 54.7561 54.1875 58.0779 53.7458C60.9821 53.3594 61.8217 50.7833 60.2831 48.2906L58.7498 45.8073C57.38 43.5871 56.5504 41.0764 56.3279 38.4771L55.8279 32.6542L55.829 32.6552Z" stroke="white" stroke-width="1.5" stroke-linecap="round" stroke-linejoin="round"/>
<path d="M31.7164 54.4562C31.9431 56.4946 32.9134 58.3779 34.4416 59.7457C35.9699 61.1134 37.9488 61.8696 39.9998 61.8696C42.0507 61.8696 44.0297 61.1134 45.5579 59.7457C47.0862 58.3779 48.0565 56.4946 48.2831 54.4562M18.1404 32.7083C17.9675 29.9302 19.18 23.125 25.4164 18.125M61.8591 32.7083C62.0321 29.9302 60.8196 23.125 54.5831 18.125" stroke="white" stroke-width="1.5" stroke-linecap="round" stroke-linejoin="round"/>
</svg>
