<svg width="525" height="80" viewBox="0 0 525 80" fill="none" xmlns="http://www.w3.org/2000/svg">
<path d="M230.089 0.00123655H19.9194C19.1533 0.00123655 18.3964 0.00123655 17.6324 0.00523649C16.9928 0.00923642 16.3583 0.0208562 15.7125 0.0306361C14.3097 0.0464395 12.9102 0.164587 11.5261 0.384051C10.1439 0.608292 8.80511 1.03105 7.55485 1.63803C6.30612 2.25015 5.16512 3.04552 4.17324 3.99531C3.17615 4.94243 2.345 6.03718 1.71175 7.23744C1.07675 8.43532 0.636442 9.71896 0.406028 11.044C0.173423 12.3674 0.0482561 13.7061 0.0316507 15.048C0.0122633 15.6612 0.010216 16.2764 0 16.8897V63.1175C0.010216 63.7385 0.0122633 64.34 0.0316507 64.9612C0.0482612 66.3031 0.173428 67.6416 0.406028 68.965C0.635805 70.2908 1.07614 71.5752 1.71175 72.7735C2.34471 73.9699 3.17598 75.0602 4.17324 76.0021C5.16135 76.9561 6.30309 77.752 7.55485 78.3594C8.8051 78.968 10.1438 79.3933 11.5261 79.621C12.9104 79.8387 14.3098 79.9569 15.7125 79.9746C16.3583 79.9882 16.9928 79.996 17.6324 79.996C18.3964 80 19.1534 80 19.9194 80H230.089C230.84 80 231.603 80 232.353 79.996C232.99 79.996 233.643 79.9882 234.279 79.9746C235.679 79.9578 237.076 79.8396 238.458 79.621C239.844 79.3917 241.188 78.9665 242.444 78.3594C243.695 77.7516 244.836 76.9557 245.823 76.0021C246.817 75.0565 247.651 73.967 248.291 72.7735C248.922 71.5743 249.358 70.29 249.585 68.965C249.818 67.6415 249.947 66.3032 249.973 64.9612C249.981 64.34 249.981 63.7385 249.981 63.1175C249.997 62.3909 249.997 61.6683 249.997 60.9299V19.0732C249.997 18.3408 249.997 17.6142 249.981 16.8897C249.981 16.2764 249.981 15.6612 249.973 15.0479C249.947 13.7059 249.818 12.3675 249.585 11.0439C249.358 9.71965 248.922 8.43611 248.291 7.23736C247.002 4.83155 244.957 2.87324 242.444 1.63785C241.188 1.03236 239.844 0.609708 238.458 0.383871C237.076 0.16344 235.68 0.0452514 234.279 0.0303561C233.643 0.0205962 232.99 0.00887643 232.353 0.00497649C231.603 0.000976551 230.84 0.000976551 230.089 0.000976551V0.00123655Z" fill="#373737"/>
<path d="M17.6419 78.2498C17.0054 78.2498 16.3843 78.242 15.7527 78.2284C14.4445 78.2121 13.1393 78.103 11.8478 77.9022C10.6436 77.7036 9.47704 77.3343 8.38662 76.8064C7.30619 76.2829 6.32076 75.5964 5.46807 74.7732C4.60303 73.9598 3.88285 73.0163 3.33606 71.9803C2.78325 70.9375 2.40067 69.8197 2.20165 68.6659C1.98673 67.4262 1.87044 66.1726 1.85381 64.916C1.84056 64.4942 1.82322 63.0898 1.82322 63.0898V16.8894C1.82322 16.8894 1.84169 15.5066 1.85391 15.1003C1.86984 13.8457 1.98545 12.5941 2.19973 11.3563C2.39911 10.1993 2.78199 9.07834 3.3351 8.03212C3.87988 6.99676 4.59606 6.05261 5.45589 5.23626C6.31475 4.41216 7.30333 3.72213 8.3856 3.19135C9.47351 2.66513 10.6379 2.29841 11.8396 2.10349C13.1353 1.90063 14.4451 1.79095 15.7579 1.77537L17.643 1.75096H232.343L234.25 1.77635C235.551 1.79115 236.849 1.89985 238.133 2.10153C239.347 2.2989 240.523 2.66817 241.623 3.19721C243.792 4.26689 245.556 5.95922 246.669 8.037C247.213 9.076 247.59 10.1878 247.787 11.3348C248.004 12.5828 248.125 13.8442 248.15 15.1091C248.156 15.6755 248.156 16.2839 248.156 16.8894C248.172 17.6394 248.172 18.3532 248.172 19.0729V60.9296C248.172 61.6562 248.172 62.3652 248.156 63.08C248.156 63.7304 248.156 64.3262 248.148 64.9394C248.123 66.1817 248.004 67.4207 247.791 68.6463C247.596 69.8084 247.215 70.9349 246.663 71.9863C246.112 73.0111 245.396 73.9464 244.541 74.7576C243.687 75.5852 242.7 76.2757 241.617 76.8026C240.52 77.3346 239.345 77.7053 238.133 77.9022C236.841 78.1041 235.536 78.2131 234.228 78.2284C233.616 78.242 232.975 78.2498 232.353 78.2498L230.088 78.2538L17.6419 78.2498Z" fill="white"/>
<path d="M120.37 47.5305C116.343 47.5305 113.054 50.3904 113.054 54.3364C113.054 58.2503 116.343 61.1403 120.37 61.1403C124.404 61.1403 127.693 58.2503 127.693 54.3364C127.693 50.3904 124.404 47.5305 120.37 47.5305ZM120.37 58.4603C118.16 58.4603 116.26 56.7583 116.26 54.3364C116.26 51.8824 118.16 50.2104 120.37 50.2104C122.579 50.2104 124.488 51.8824 124.488 54.3364C124.488 56.7583 122.579 58.4603 120.37 58.4603ZM104.408 47.5305C100.374 47.5305 97.0932 50.3904 97.0932 54.3364C97.0932 58.2503 100.374 61.1403 104.408 61.1403C108.441 61.1403 111.724 58.2503 111.724 54.3364C111.724 50.3904 108.441 47.5305 104.408 47.5305ZM104.408 58.4603C102.197 58.4603 100.29 56.7583 100.29 54.3364C100.29 51.8824 102.197 50.2104 104.408 50.2104C106.618 50.2104 108.518 51.8824 108.518 54.3364C108.518 56.7583 106.618 58.4603 104.408 58.4603ZM85.4153 49.6164V52.5084H92.8141C92.5977 54.1244 92.0192 55.3123 91.1321 56.1403C90.0522 57.1403 88.3701 58.2503 85.4153 58.2503C80.862 58.2503 77.2965 54.8204 77.2965 50.5704C77.2965 46.3205 80.862 42.8905 85.4153 42.8905C87.8773 42.8905 89.6686 43.7885 90.9907 44.9525L93.1741 42.9145C91.325 41.2666 88.8651 40.0006 85.4153 40.0006C79.1714 40.0006 73.9239 44.7425 73.9239 50.5704C73.9239 56.3983 79.1714 61.1403 85.4153 61.1403C88.7901 61.1403 91.325 60.1083 93.3177 58.1723C95.3597 56.2663 95.9961 53.5864 95.9961 51.4224C95.9961 50.7504 95.9361 50.1324 95.829 49.6164H85.4153ZM163.08 51.8584C162.478 50.3364 160.621 47.5305 156.837 47.5305C153.087 47.5305 149.965 50.2884 149.965 54.3364C149.965 58.1483 153.055 61.1403 157.197 61.1403C160.546 61.1403 162.478 59.2343 163.273 58.1243L160.788 56.5783C159.959 57.7103 158.829 58.4603 157.197 58.4603C155.575 58.4603 154.411 57.7663 153.665 56.3983L163.417 52.6324L163.08 51.8584ZM153.138 54.1244C153.055 51.5004 155.322 50.1564 156.946 50.1564C158.219 50.1564 159.299 50.7504 159.659 51.6004L153.138 54.1244ZM145.212 60.7263H148.418V40.7266H145.212V60.7263ZM139.963 49.0464H139.855C139.136 48.2505 137.762 47.5305 136.022 47.5305C132.371 47.5305 129.033 50.5224 129.033 54.3584C129.033 58.1723 132.371 61.1403 136.022 61.1403C137.762 61.1403 139.136 60.4143 139.855 59.5943H139.963V60.5703C139.963 63.1722 138.473 64.5702 136.071 64.5702C134.113 64.5702 132.898 63.2502 132.397 62.1402L129.609 63.2262C130.413 65.0302 132.54 67.2502 136.071 67.2502C139.83 67.2502 143.001 65.1862 143.001 60.1643V47.9445H139.963V49.0464ZM136.296 58.4603C134.087 58.4603 132.238 56.7343 132.238 54.3584C132.238 51.9604 134.087 50.2104 136.296 50.2104C138.473 50.2104 140.19 51.9604 140.19 54.3584C140.19 56.7343 138.473 58.4603 136.296 58.4603ZM178.088 40.7266H170.421V60.7263H173.618V53.1484H178.088C181.639 53.1484 185.121 50.7504 185.121 46.9365C185.121 43.1245 181.63 40.7266 178.088 40.7266ZM178.172 50.3664H173.618V43.5085H178.172C180.559 43.5085 181.921 45.3585 181.921 46.9365C181.921 48.4844 180.559 50.3664 178.172 50.3664ZM197.934 47.4925C195.624 47.4925 193.222 48.4444 192.234 50.5544L195.071 51.6644C195.682 50.5544 196.805 50.1944 197.992 50.1944C199.65 50.1944 201.332 51.1244 201.358 52.7664V52.9764C200.78 52.6644 199.541 52.2024 198.018 52.2024C194.962 52.2024 191.849 53.7724 191.849 56.7023C191.849 59.3823 194.351 61.1083 197.165 61.1083C199.316 61.1083 200.503 60.2023 201.249 59.1483H201.358V60.6943H204.446V53.0224C204.446 49.4764 201.609 47.4925 197.934 47.4925ZM197.548 58.4523C196.503 58.4523 195.046 57.9683 195.046 56.7583C195.046 55.2103 196.863 54.6164 198.435 54.6164C199.843 54.6164 200.503 54.9063 201.358 55.2883C201.107 57.1403 199.4 58.4523 197.548 58.4523ZM215.695 47.9305L212.02 56.6003H211.911L208.112 47.9305H204.664L210.373 60.0463L207.116 66.7882H210.456L219.252 47.9305H215.695ZM186.878 60.7263H190.083V40.7266H186.878V60.7263Z" fill="black"/>
<path d="M79.0242 17.4635C79.8382 17.4076 80.655 17.5253 81.4157 17.8082C82.1764 18.091 82.862 18.532 83.4231 19.0992C83.9842 19.6665 84.4068 20.3459 84.6605 21.0884C84.9141 21.8309 84.9924 22.6181 84.8898 23.3931C84.8898 27.2056 82.7374 29.397 79.0242 29.397H74.5216V17.4635H79.0242ZM76.4577 27.7094H78.808C79.3896 27.7426 79.9717 27.6514 80.5118 27.4421C81.0519 27.2329 81.5365 26.911 81.9303 26.4999C82.3241 26.0888 82.6172 25.5988 82.7882 25.0655C82.9592 24.5323 83.0039 23.9693 82.919 23.4174C82.9977 22.8678 82.9485 22.3082 82.7749 21.7789C82.6012 21.2496 82.3074 20.7636 81.9146 20.3557C81.5217 19.9479 81.0394 19.6283 80.5023 19.4198C79.9652 19.2113 79.3866 19.1192 78.808 19.1499H76.4577V27.7094Z" fill="black"/>
<path d="M87.0775 24.8902C87.0184 24.2984 87.0891 23.7013 87.2852 23.1371C87.4812 22.573 87.7983 22.0543 88.216 21.6144C88.6337 21.1744 89.1428 20.8229 89.7108 20.5823C90.2787 20.3418 90.8929 20.2175 91.5139 20.2175C92.135 20.2175 92.7492 20.3418 93.3171 20.5823C93.885 20.8229 94.3942 21.1744 94.8119 21.6144C95.2296 22.0543 95.5467 22.573 95.7427 23.1371C95.9388 23.7013 96.0095 24.2984 95.9503 24.8902C96.0106 25.4826 95.9407 26.0806 95.7452 26.6456C95.5497 27.2107 95.2328 27.7303 94.815 28.1711C94.3972 28.612 93.8876 28.9642 93.3191 29.2053C92.7506 29.4463 92.1357 29.5709 91.5139 29.5709C90.8922 29.5709 90.2773 29.4463 89.7087 29.2053C89.1402 28.9642 88.6307 28.612 88.2129 28.1711C87.7951 27.7303 87.4782 27.2107 87.2827 26.6456C87.0872 26.0806 87.0173 25.4826 87.0775 24.8902ZM94.0407 24.8902C94.0407 22.9381 93.1246 21.7965 91.517 21.7965C89.9032 21.7965 88.9954 22.9381 88.9954 24.8902C88.9954 26.858 89.9033 27.9908 91.517 27.9908C93.1247 27.9907 94.0407 26.8501 94.0407 24.8902H94.0407Z" fill="black"/>
<path d="M107.744 29.3961H105.818L103.874 22.7634H103.727L101.79 29.3961H99.8829L97.2898 20.3904H99.1729L100.858 27.2623H100.997L102.931 20.3904H104.712L106.646 27.2623H106.793L108.47 20.3904H110.327L107.744 29.3961Z" fill="black"/>
<path d="M112.507 20.3895H114.295V21.8201H114.433C114.669 21.3063 115.066 20.8756 115.569 20.5879C116.072 20.3003 116.657 20.1702 117.241 20.2156C117.698 20.1827 118.158 20.2488 118.585 20.409C119.013 20.5692 119.397 20.8194 119.71 21.141C120.023 21.4627 120.256 21.8476 120.392 22.2673C120.528 22.6869 120.564 23.1305 120.497 23.5652V29.3951H118.64V24.0115C118.64 22.5643 117.983 21.8445 116.61 21.8445C116.299 21.8307 115.989 21.8813 115.701 21.993C115.412 22.1046 115.153 22.2747 114.939 22.4914C114.726 22.7082 114.564 22.9666 114.465 23.2488C114.365 23.5311 114.331 23.8306 114.364 24.1267V29.3952H112.507L112.507 20.3895Z" fill="black"/>
<path d="M123.456 16.8748H125.312V29.3961H123.456V16.8748Z" fill="black"/>
<path d="M127.893 24.8894C127.834 24.2975 127.905 23.7004 128.101 23.1362C128.297 22.5721 128.614 22.0534 129.032 21.6134C129.45 21.1734 129.959 20.8219 130.527 20.5814C131.095 20.3408 131.709 20.2166 132.33 20.2166C132.951 20.2166 133.566 20.3408 134.134 20.5814C134.702 20.8219 135.211 21.1734 135.629 21.6134C136.046 22.0534 136.363 22.5721 136.559 23.1362C136.756 23.7004 136.826 24.2975 136.767 24.8894C136.827 25.4819 136.757 26.0798 136.562 26.6449C136.366 27.2099 136.049 27.7295 135.632 28.1703C135.214 28.6111 134.704 28.9634 134.136 29.2044C133.567 29.4455 132.952 29.57 132.33 29.57C131.709 29.57 131.094 29.4455 130.525 29.2044C129.957 28.9634 129.447 28.6111 129.029 28.1703C128.611 27.7295 128.294 27.2099 128.099 26.6449C127.903 26.0798 127.833 25.4819 127.893 24.8894ZM134.857 24.8894C134.857 22.9373 133.941 21.7957 132.333 21.7957C130.719 21.7957 129.811 22.9373 129.811 24.8894C129.811 26.8572 130.719 27.99 132.333 27.99C133.941 27.9899 134.857 26.8493 134.857 24.8894Z" fill="black"/>
<path d="M138.721 26.8492C138.721 25.2282 139.982 24.2936 142.22 24.1608L144.768 24.0202V23.2429C144.768 22.2917 144.111 21.7546 142.842 21.7546C141.806 21.7546 141.088 22.1189 140.882 22.7556H139.084C139.274 21.2087 140.794 20.2166 142.928 20.2166C145.286 20.2166 146.617 21.3405 146.617 23.2429V29.3961H144.829V28.1305H144.682C144.384 28.5845 143.966 28.9546 143.469 29.203C142.973 29.4514 142.416 29.5692 141.857 29.5445C141.462 29.5838 141.063 29.5435 140.685 29.4261C140.307 29.3087 139.96 29.1168 139.664 28.8629C139.369 28.6089 139.132 28.2986 138.97 27.9517C138.807 27.6049 138.723 27.2293 138.721 26.8492ZM144.768 26.0797V25.3268L142.471 25.4674C141.175 25.5504 140.588 25.9723 140.588 26.7662C140.588 27.5768 141.322 28.0484 142.332 28.0484C142.628 28.0771 142.927 28.0485 143.211 27.9643C143.495 27.8801 143.759 27.7421 143.986 27.5584C144.213 27.3747 144.4 27.1492 144.534 26.8951C144.668 26.6411 144.748 26.3638 144.768 26.0797Z" fill="black"/>
<path d="M149.057 24.8893C149.057 22.0437 150.585 20.241 152.962 20.241C153.55 20.215 154.133 20.3499 154.644 20.6296C155.155 20.9094 155.572 21.3226 155.847 21.821H155.985V16.8748H157.842V29.3961H156.063V27.9732H155.916C155.62 28.4682 155.188 28.8763 154.668 29.1532C154.147 29.4302 153.557 29.5655 152.962 29.5445C150.569 29.5446 149.057 27.7418 149.057 24.8893ZM150.975 24.8893C150.975 26.7995 151.915 27.9489 153.488 27.9489C155.053 27.9489 156.02 26.7829 156.02 24.8972C156.02 23.0202 155.043 21.8376 153.488 21.8376C151.925 21.8376 150.975 22.9948 150.975 24.8893Z" fill="black"/>
<path d="M165.523 24.8892C165.464 24.2974 165.534 23.7003 165.73 23.1362C165.927 22.572 166.244 22.0533 166.661 21.6134C167.079 21.1734 167.588 20.8219 168.156 20.5814C168.724 20.3408 169.338 20.2166 169.959 20.2166C170.58 20.2166 171.194 20.3408 171.762 20.5814C172.33 20.8219 172.84 21.1734 173.257 21.6134C173.675 22.0533 173.992 22.572 174.188 23.1362C174.384 23.7003 174.455 24.2974 174.396 24.8892C174.456 25.4817 174.386 26.0796 174.191 26.6447C173.995 27.2097 173.678 27.7293 173.26 28.1702C172.842 28.611 172.333 28.9632 171.764 29.2043C171.196 29.4454 170.581 29.5699 169.959 29.5699C169.337 29.5699 168.723 29.4454 168.154 29.2043C167.586 28.9632 167.076 28.611 166.658 28.1702C166.24 27.7293 165.924 27.2097 165.728 26.6447C165.532 26.0796 165.463 25.4817 165.523 24.8892ZM172.486 24.8892C172.486 22.9371 171.57 21.7955 169.962 21.7955C168.349 21.7955 167.441 22.9371 167.441 24.8893C167.441 26.857 168.349 27.9898 169.962 27.9898C171.57 27.9898 172.486 26.8492 172.486 24.8892Z" fill="black"/>
<path d="M176.887 20.3895H178.675V21.8201H178.813C179.049 21.3063 179.446 20.8756 179.949 20.5879C180.452 20.3003 181.037 20.1702 181.621 20.2156C182.078 20.1827 182.538 20.2488 182.966 20.409C183.393 20.5692 183.777 20.8194 184.09 21.141C184.403 21.4627 184.636 21.8476 184.772 22.2673C184.908 22.6869 184.944 23.1305 184.877 23.5652V29.3951H183.02V24.0115C183.02 22.5643 182.363 21.8445 180.99 21.8445C180.68 21.8307 180.369 21.8813 180.081 21.993C179.792 22.1046 179.533 22.2747 179.319 22.4914C179.106 22.7082 178.944 22.9666 178.845 23.2488C178.746 23.5311 178.711 23.8306 178.744 24.1267V29.3952H176.887V20.3895Z" fill="black"/>
<path d="M195.367 18.1482V20.4314H197.405V21.9284H195.367V26.5592C195.367 27.5026 195.773 27.9156 196.697 27.9156C196.934 27.9149 197.17 27.9012 197.405 27.8746V29.3551C197.072 29.4122 196.734 29.4425 196.396 29.4459C194.331 29.4459 193.509 28.7506 193.509 27.0143V21.9284H192.015V20.4313H193.509V18.1482H195.367Z" fill="black"/>
<path d="M199.941 16.8748H201.781V21.8376H201.928C202.175 21.319 202.583 20.8858 203.096 20.5971C203.609 20.3084 204.203 20.1783 204.796 20.2244C205.252 20.2006 205.707 20.2734 206.13 20.4375C206.552 20.6016 206.932 20.8529 207.241 21.1736C207.551 21.4943 207.782 21.8764 207.92 22.2926C208.057 22.7089 208.097 23.1491 208.036 23.5817V29.3961H206.178V24.0202C206.178 22.5817 205.478 21.8532 204.166 21.8532C203.847 21.8282 203.526 21.8702 203.226 21.9763C202.925 22.0824 202.653 22.25 202.427 22.4675C202.202 22.685 202.028 22.947 201.92 23.2353C201.811 23.5235 201.769 23.8311 201.798 24.1364V29.3961H199.941L199.941 16.8748Z" fill="black"/>
<path d="M218.863 26.9646C218.611 27.7877 218.064 28.4997 217.319 28.976C216.574 29.4522 215.677 29.6625 214.786 29.5701C214.167 29.5857 213.551 29.4721 212.981 29.237C212.412 29.002 211.903 28.6511 211.49 28.2089C211.076 27.7666 210.768 27.2435 210.587 26.6759C210.406 26.1082 210.356 25.5097 210.441 24.9217C210.358 24.3319 210.409 23.7321 210.59 23.1628C210.77 22.5934 211.077 22.0679 211.488 21.6218C211.899 21.1756 212.406 20.8193 212.974 20.5769C213.541 20.3345 214.157 20.2116 214.778 20.2167C217.396 20.2167 218.975 21.9287 218.975 24.7566V25.3768H212.332V25.4764C212.303 25.8069 212.346 26.1395 212.46 26.453C212.573 26.7665 212.753 27.0539 212.989 27.2969C213.225 27.5398 213.511 27.7328 213.829 27.8636C214.148 27.9944 214.491 28.06 214.837 28.0564C215.282 28.1074 215.731 28.0308 216.13 27.8364C216.529 27.642 216.858 27.3385 217.076 26.9646L218.863 26.9646ZM212.332 24.0623H217.084C217.107 23.7601 217.064 23.4565 216.958 23.1711C216.851 22.8856 216.684 22.6247 216.466 22.405C216.247 22.1853 215.984 22.0116 215.691 21.8953C215.399 21.7789 215.085 21.7224 214.768 21.7294C214.447 21.7255 214.128 21.7832 213.831 21.8991C213.533 22.015 213.263 22.1867 213.036 22.4041C212.809 22.6216 212.63 22.8803 212.509 23.1651C212.388 23.4499 212.328 23.755 212.332 24.0623H212.332Z" fill="black"/>
<path d="M47.4081 49.4288L26.7987 60.4878L26.7342 60.5178C26.0031 60.9278 25.143 61.1577 24.2292 61.1577C21.9393 61.1577 20.0149 59.7079 19.4558 57.748C19.4487 57.7414 19.4451 57.738 19.4451 57.738L37.7646 39.6597L47.4081 49.4288Z" fill="#EA4335"/>
<path d="M58.8685 40.6183C58.8685 42.3682 57.8149 43.8981 56.256 44.678L47.4081 49.4276L37.3452 40.0684L47.3758 31.7691L56.2668 36.5687L56.2883 36.5787C57.8256 37.3586 58.8685 38.8785 58.8685 40.6183Z" fill="#FBBC04"/>
<path d="M38.3882 40.1191L19.4452 57.7375C19.3377 57.3576 19.2839 56.9676 19.2839 56.5576V24.6105C19.2839 24.2005 19.3377 23.8006 19.4452 23.4206L38.3882 40.1191Z" fill="#4285F4"/>
<path d="M19.4451 23.4204C20.0149 21.4506 21.9393 20.0007 24.2292 20.0007C25.1645 20.0007 26.0354 20.2507 26.7879 20.6607L47.3758 31.7697L37.8936 40.5789L19.4451 23.4204Z" fill="#34A853"/>
<path d="M505.085 0.000259996H294.916C294.15 0.000259996 293.393 0.000259996 292.629 0.00425993C291.989 0.00825987 291.355 0.0198797 290.709 0.0296595C289.306 0.0454629 287.907 0.16361 286.523 0.383074C285.141 0.607316 283.802 1.03008 282.551 1.63705C281.303 2.24917 280.162 3.04455 279.17 3.99434C278.173 4.94146 277.342 6.0362 276.708 7.23647C276.073 8.43435 275.633 9.71799 275.403 11.0431C275.17 12.3664 275.045 13.7051 275.028 15.047C275.009 15.6602 275.007 16.2754 274.997 16.8887V63.1165C275.007 63.7375 275.009 64.3391 275.028 64.9603C275.045 66.3021 275.17 67.6407 275.403 68.964C275.632 70.2898 276.073 71.5742 276.708 72.7725C277.341 73.9689 278.173 75.0592 279.17 76.0011C280.158 76.9551 281.3 77.751 282.551 78.3584C283.802 78.9671 285.14 79.3923 286.523 79.62C287.907 79.8377 289.306 79.9559 290.709 79.9736C291.355 79.9872 291.989 79.995 292.629 79.995C293.393 79.999 294.15 79.999 294.916 79.999H505.085C505.836 79.999 506.599 79.999 507.35 79.995C507.987 79.995 508.639 79.9872 509.276 79.9736C510.676 79.9569 512.073 79.8387 513.454 79.62C514.841 79.3907 516.185 78.9656 517.441 78.3584C518.691 77.7507 519.832 76.9548 520.819 76.0011C521.814 75.0555 522.647 73.966 523.288 72.7725C523.919 71.5733 524.355 70.2891 524.581 68.964C524.814 67.6405 524.944 66.3022 524.969 64.9603C524.977 64.3391 524.977 63.7375 524.977 63.1165C524.994 62.3899 524.994 61.6673 524.994 60.9289V19.0722C524.994 18.3398 524.994 17.6133 524.977 16.8887C524.977 16.2754 524.977 15.6602 524.969 15.0469C524.944 13.7049 524.814 12.3665 524.581 11.043C524.354 9.71867 523.918 8.43514 523.288 7.23639C521.998 4.83058 519.954 2.87227 517.441 1.63687C516.185 1.03138 514.841 0.608731 513.454 0.382894C512.073 0.162463 510.676 0.0442748 509.276 0.0293795C508.639 0.0196197 507.987 0.00789988 507.35 0.00399994C506.599 0 505.836 0 505.085 0V0.000259996Z" fill="#373737"/>
<path d="M292.639 78.2488C292.002 78.2488 291.381 78.241 290.749 78.2274C289.441 78.2111 288.136 78.1021 286.844 77.9012C285.64 77.7027 284.474 77.3333 283.383 76.8054C282.303 76.2819 281.317 75.5954 280.465 74.7723C279.6 73.9588 278.879 73.0154 278.333 71.9793C277.78 70.9365 277.397 69.8187 277.198 68.6649C276.983 67.4252 276.867 66.1716 276.85 64.915C276.837 64.4932 276.82 63.0888 276.82 63.0888V16.8884C276.82 16.8884 276.838 15.5056 276.851 15.0994C276.866 13.8448 276.982 12.5931 277.196 11.3553C277.396 10.1983 277.779 9.07736 278.332 8.03114C278.877 6.99579 279.593 6.05163 280.453 5.23529C281.311 4.41118 282.3 3.72116 283.382 3.19038C284.47 2.66415 285.635 2.29744 286.836 2.10251C288.132 1.89965 289.442 1.78997 290.755 1.7744L292.64 1.74998H507.339L509.247 1.77538C510.548 1.79018 511.845 1.89888 513.129 2.10055C514.343 2.29792 515.52 2.6672 516.62 3.19624C518.788 4.26591 520.552 5.95824 521.665 8.03602C522.21 9.07502 522.587 10.1869 522.783 11.3338C523 12.5818 523.122 13.8433 523.147 15.1082C523.153 15.6746 523.153 16.283 523.153 16.8884C523.169 17.6384 523.169 18.3523 523.169 19.072V60.9287C523.169 61.6553 523.169 62.3642 523.153 63.079C523.153 63.7294 523.153 64.3252 523.144 64.9384C523.12 66.1807 523.001 67.4197 522.787 68.6453C522.592 69.8075 522.212 70.9339 521.659 71.9853C521.109 73.0101 520.393 73.9454 519.538 74.7566C518.684 75.5842 517.697 76.2747 516.614 76.8016C515.517 77.3336 514.342 77.7043 513.129 77.9012C511.838 78.1031 510.533 78.2122 509.224 78.2274C508.612 78.241 507.972 78.2488 507.349 78.2488L505.085 78.2528L292.639 78.2488Z" fill="white"/>
<path d="M326.742 40.6021C326.765 38.9328 327.228 37.296 328.089 35.8442C328.95 34.3923 330.18 33.1724 331.666 32.2981C330.722 31.0078 329.477 29.9459 328.029 29.1968C326.582 28.4477 324.972 28.032 323.327 27.9828C319.819 27.6303 316.418 29.9924 314.63 29.9924C312.808 29.9924 310.056 28.0178 307.092 28.0762C305.175 28.1355 303.306 28.6692 301.668 29.6253C300.031 30.5814 298.68 31.9273 297.747 33.5318C293.707 40.2286 296.72 50.0705 300.591 55.4836C302.527 58.1343 304.79 61.0952 307.752 60.9902C310.649 60.8751 311.732 59.2212 315.23 59.2212C318.695 59.2212 319.71 60.9902 322.732 60.9234C325.841 60.8751 327.8 58.261 329.669 55.5852C331.06 53.6965 332.131 51.6091 332.841 49.4003C331.035 48.6688 329.493 47.4445 328.408 45.8799C327.324 44.3154 326.744 42.4798 326.742 40.6021Z" fill="black"/>
<path d="M321.036 24.4223C322.731 22.4739 323.566 19.9696 323.364 17.4412C320.774 17.7016 318.381 18.8867 316.663 20.7604C315.823 21.6757 315.179 22.7405 314.769 23.8941C314.359 25.0476 314.191 26.2671 314.273 27.483C315.569 27.4958 316.851 27.227 318.022 26.6968C319.193 26.1667 320.224 25.389 321.036 24.4223Z" fill="black"/>
<path d="M363.373 54.2796H353.484L351.109 60.9924H346.921L356.287 36.1568H360.639L370.005 60.9924H365.745L363.373 54.2796ZM354.508 51.182H362.347L358.482 40.2876H358.374L354.508 51.182Z" fill="black"/>
<path d="M390.233 51.9392C390.233 57.5661 387.087 61.1813 382.34 61.1813C381.137 61.2415 379.941 60.9763 378.889 60.416C377.836 59.8557 376.97 59.0231 376.389 58.0133H376.299V66.9819H372.416V42.8847H376.174V45.8963H376.246C376.854 44.8914 377.735 44.063 378.795 43.4994C379.856 42.9357 381.056 42.6578 382.269 42.6952C387.069 42.6952 390.233 46.328 390.233 51.9392ZM386.243 51.9392C386.243 48.2733 384.264 45.8631 381.244 45.8631C378.278 45.8631 376.283 48.324 376.283 51.9392C376.283 55.5876 378.278 58.0309 381.244 58.0309C384.264 58.0309 386.243 55.6384 386.243 51.9392Z" fill="black"/>
<path d="M411.052 51.9392C411.052 57.5661 407.907 61.1812 403.159 61.1812C401.956 61.2415 400.76 60.9763 399.708 60.416C398.655 59.8557 397.789 59.023 397.208 58.0133H397.118V66.9819H393.235V42.8846H396.993V45.8963H397.065C397.673 44.8914 398.554 44.063 399.614 43.4994C400.675 42.9357 401.875 42.6578 403.088 42.6952C407.888 42.6952 411.052 46.3279 411.052 51.9392ZM407.062 51.9392C407.062 48.2733 405.083 45.8631 402.063 45.8631C399.097 45.8631 397.102 48.324 397.102 51.9392C397.102 55.5876 399.097 58.0309 402.063 58.0309C405.083 58.0309 407.062 55.6384 407.062 51.9392H407.062Z" fill="black"/>
<path d="M424.811 54.0726C425.099 56.5355 427.598 58.1526 431.013 58.1526C434.286 58.1526 436.64 56.5354 436.64 54.3147C436.64 52.387 435.22 51.2328 431.858 50.4417L428.496 49.6664C423.732 48.5648 421.52 46.432 421.52 42.9711C421.52 38.686 425.421 35.7427 430.96 35.7427C436.442 35.7427 440.2 38.686 440.327 42.9711H436.407C436.173 40.4927 434.033 38.9966 430.905 38.9966C427.777 38.9966 425.637 40.5103 425.637 42.7133C425.637 44.4692 427.004 45.5024 430.348 46.2933L433.206 46.9652C438.529 48.1702 440.741 50.2171 440.741 53.8498C440.741 58.4962 436.875 61.4063 430.725 61.4063C424.972 61.4063 421.088 58.5646 420.837 54.0724L424.811 54.0726Z" fill="black"/>
<path d="M449.12 38.6001V42.8852H452.717V45.8285H449.12V55.8108C449.12 57.3615 449.84 58.0842 451.422 58.0842C451.849 58.0771 452.275 58.0484 452.699 57.9982V60.9239C451.988 61.0511 451.265 61.1087 450.542 61.0958C446.713 61.0958 445.219 59.7189 445.219 56.2072V45.8285H442.469V42.8852H445.219V38.6001H449.12Z" fill="black"/>
<path d="M454.799 51.9398C454.799 46.2426 458.304 42.6626 463.77 42.6626C469.254 42.6626 472.743 46.2425 472.743 51.9398C472.743 57.6526 469.272 61.217 463.77 61.217C458.269 61.217 454.799 57.6526 454.799 51.9398ZM468.787 51.9398C468.787 48.0316 466.916 45.725 463.77 45.725C460.624 45.725 458.755 48.0492 458.755 51.9398C458.755 55.8635 460.624 58.1526 463.77 58.1526C466.916 58.1526 468.787 55.8635 468.787 51.9398H468.787Z" fill="black"/>
<path d="M475.944 42.8855H479.647V45.9674H479.737C479.988 45.0049 480.577 44.1542 481.405 43.5584C482.234 42.9627 483.251 42.6581 484.287 42.696C484.734 42.6945 485.18 42.741 485.617 42.8347V46.3112C485.052 46.1459 484.463 46.0701 483.873 46.0866C483.309 46.0647 482.746 46.1599 482.224 46.3656C481.702 46.5714 481.233 46.8829 480.849 47.2786C480.464 47.6744 480.174 48.1451 479.998 48.6585C479.821 49.1718 479.763 49.7156 479.827 50.2525V60.9926H475.944L475.944 42.8855Z" fill="black"/>
<path d="M503.517 55.6741C502.995 58.9611 499.651 61.217 495.373 61.217C489.87 61.217 486.455 57.6877 486.455 52.0257C486.455 46.3461 489.889 42.6626 495.209 42.6626C500.443 42.6626 503.733 46.1039 503.733 51.5941V52.8675H490.374V53.0921C490.313 53.7585 490.4 54.4298 490.63 55.0615C490.86 55.6931 491.228 56.2707 491.709 56.7558C492.191 57.2409 492.774 57.6224 493.421 57.875C494.068 58.1276 494.764 58.2455 495.462 58.2209C496.38 58.3032 497.301 58.0998 498.088 57.6409C498.875 57.182 499.486 56.4922 499.831 55.6741L503.517 55.6741ZM490.393 50.2699H499.849C499.884 49.6707 499.789 49.0711 499.57 48.5087C499.351 47.9463 499.014 47.4332 498.578 47.0017C498.142 46.5701 497.618 46.2295 497.039 46.001C496.459 45.7726 495.836 45.6613 495.209 45.6742C494.577 45.6706 493.95 45.7869 493.365 46.0164C492.78 46.2459 492.249 46.584 491.801 47.0113C491.353 47.4385 490.998 47.9465 490.756 48.5058C490.515 49.065 490.391 49.6646 490.393 50.2699V50.2699Z" fill="black"/>
<path d="M354.021 17.4635C354.835 17.4076 355.652 17.5253 356.412 17.8082C357.173 18.091 357.859 18.532 358.42 19.0992C358.981 19.6665 359.403 20.3459 359.657 21.0884C359.911 21.8309 359.989 22.6181 359.886 23.3931C359.886 27.2056 357.734 29.397 354.021 29.397H349.518V17.4635H354.021ZM351.454 27.7094H353.805C354.386 27.7426 354.968 27.6514 355.508 27.4421C356.049 27.2329 356.533 26.911 356.927 26.4999C357.321 26.0888 357.614 25.5988 357.785 25.0655C357.956 24.5323 358.001 23.9693 357.916 23.4174C357.994 22.8678 357.945 22.3082 357.772 21.7789C357.598 21.2496 357.304 20.7636 356.911 20.3557C356.518 19.9479 356.036 19.6283 355.499 19.4198C354.962 19.2113 354.383 19.1192 353.805 19.1499H351.454V27.7094Z" fill="black"/>
<path d="M362.074 24.8892C362.015 24.2974 362.086 23.7003 362.282 23.1362C362.478 22.572 362.795 22.0533 363.213 21.6134C363.63 21.1734 364.139 20.8219 364.707 20.5814C365.275 20.3408 365.89 20.2166 366.511 20.2166C367.132 20.2166 367.746 20.3408 368.314 20.5814C368.882 20.8219 369.391 21.1734 369.809 21.6134C370.226 22.0533 370.543 22.572 370.739 23.1362C370.935 23.7003 371.006 24.2974 370.947 24.8892C371.007 25.4817 370.937 26.0796 370.742 26.6447C370.546 27.2097 370.229 27.7293 369.812 28.1702C369.394 28.611 368.884 28.9632 368.316 29.2043C367.747 29.4454 367.132 29.5699 366.511 29.5699C365.889 29.5699 365.274 29.4454 364.705 29.2043C364.137 28.9632 363.627 28.611 363.21 28.1702C362.792 27.7293 362.475 27.2097 362.279 26.6447C362.084 26.0796 362.014 25.4817 362.074 24.8892ZM369.037 24.8892C369.037 22.9371 368.121 21.7955 366.514 21.7955C364.9 21.7955 363.992 22.9371 363.992 24.8893C363.992 26.857 364.9 27.9898 366.514 27.9898C368.121 27.9898 369.037 26.8492 369.037 24.8892H369.037Z" fill="black"/>
<path d="M382.74 29.3961H380.814L378.87 22.7634H378.723L376.787 29.3961H374.88L372.286 20.3904H374.17L375.855 27.2623H375.994L377.928 20.3904H379.709L381.643 27.2623H381.79L383.467 20.3904H385.323L382.74 29.3961Z" fill="black"/>
<path d="M387.504 20.3895H389.291V21.8201H389.43C389.665 21.3063 390.062 20.8756 390.566 20.5879C391.069 20.3003 391.653 20.1702 392.237 20.2156C392.695 20.1827 393.155 20.2488 393.582 20.409C394.01 20.5692 394.394 20.8194 394.707 21.141C395.019 21.4627 395.252 21.8476 395.389 22.2673C395.525 22.6869 395.561 23.1305 395.493 23.5652V29.3951H393.637V24.0115C393.637 22.5643 392.98 21.8445 391.607 21.8445C391.296 21.8307 390.986 21.8813 390.697 21.993C390.409 22.1046 390.149 22.2747 389.936 22.4914C389.723 22.7082 389.561 22.9666 389.461 23.2488C389.362 23.5311 389.328 23.8306 389.361 24.1267V29.3952H387.504L387.504 20.3895Z" fill="black"/>
<path d="M398.452 16.8748H400.309V29.3961H398.452V16.8748Z" fill="black"/>
<path d="M402.89 24.8894C402.831 24.2975 402.902 23.7004 403.098 23.1362C403.294 22.5721 403.611 22.0534 404.029 21.6134C404.446 21.1734 404.956 20.8219 405.524 20.5814C406.092 20.3408 406.706 20.2166 407.327 20.2166C407.948 20.2166 408.562 20.3408 409.13 20.5814C409.698 20.8219 410.207 21.1734 410.625 21.6134C411.043 22.0534 411.36 22.5721 411.556 23.1362C411.752 23.7004 411.823 24.2975 411.764 24.8894C411.824 25.4819 411.754 26.0798 411.559 26.6449C411.363 27.2099 411.046 27.7295 410.628 28.1703C410.21 28.6111 409.701 28.9634 409.132 29.2044C408.564 29.4455 407.949 29.57 407.327 29.57C406.705 29.57 406.09 29.4455 405.522 29.2044C404.953 28.9634 404.444 28.6111 404.026 28.1703C403.608 27.7295 403.291 27.2099 403.095 26.6449C402.9 26.0798 402.83 25.4819 402.89 24.8894ZM409.853 24.8894C409.853 22.9373 408.937 21.7957 407.329 21.7957C405.716 21.7957 404.808 22.9373 404.808 24.8894C404.808 26.8572 405.716 27.99 407.329 27.99C408.937 27.9899 409.853 26.8493 409.853 24.8894H409.853Z" fill="black"/>
<path d="M413.718 26.8493C413.718 25.2282 414.978 24.2936 417.217 24.1608L419.765 24.0202V23.2429C419.765 22.2917 419.108 21.7546 417.839 21.7546C416.802 21.7546 416.084 22.1189 415.878 22.7556H414.081C414.27 21.2087 415.79 20.2166 417.924 20.2166C420.283 20.2166 421.613 21.3405 421.613 23.2429V29.3961H419.826V28.1305H419.679C419.381 28.5845 418.962 28.9546 418.466 29.203C417.969 29.4514 417.413 29.5692 416.853 29.5445C416.458 29.5838 416.059 29.5435 415.682 29.4261C415.304 29.3087 414.956 29.1168 414.661 28.8629C414.365 28.6089 414.129 28.2986 413.966 27.9517C413.804 27.6049 413.719 27.2293 413.718 26.8493ZM419.765 26.0797V25.3268L417.467 25.4674C416.172 25.5504 415.584 25.9723 415.584 26.7662C415.584 27.5768 416.319 28.0484 417.329 28.0484C417.625 28.0771 417.924 28.0485 418.208 27.9643C418.492 27.8801 418.755 27.7421 418.983 27.5584C419.21 27.3748 419.396 27.1492 419.531 26.8951C419.665 26.6411 419.745 26.3638 419.765 26.0797Z" fill="black"/>
<path d="M424.053 24.8893C424.053 22.0437 425.582 20.241 427.958 20.241C428.546 20.215 429.13 20.3499 429.641 20.6296C430.151 20.9094 430.569 21.3226 430.843 21.821H430.982V16.8748H432.838V29.3961H431.059V27.9732H430.913C430.617 28.4682 430.185 28.8763 429.664 29.1532C429.144 29.4302 428.554 29.5655 427.958 29.5445C425.565 29.5446 424.053 27.7418 424.053 24.8893ZM425.971 24.8893C425.971 26.7995 426.912 27.9489 428.485 27.9489C430.05 27.9489 431.017 26.7829 431.017 24.8972C431.017 23.0202 430.039 21.8376 428.485 21.8376C426.922 21.8376 425.971 22.9948 425.971 24.8893H425.971Z" fill="black"/>
<path d="M440.52 24.8892C440.46 24.2974 440.531 23.7003 440.727 23.1362C440.923 22.572 441.24 22.0533 441.658 21.6134C442.076 21.1734 442.585 20.8219 443.153 20.5814C443.721 20.3408 444.335 20.2166 444.956 20.2166C445.577 20.2166 446.191 20.3408 446.759 20.5814C447.327 20.8219 447.836 21.1734 448.254 21.6134C448.672 22.0533 448.989 22.572 449.185 23.1362C449.381 23.7003 449.451 24.2974 449.392 24.8892C449.453 25.4817 449.383 26.0796 449.187 26.6447C448.992 27.2097 448.675 27.7293 448.257 28.1702C447.839 28.611 447.33 28.9632 446.761 29.2043C446.193 29.4454 445.578 29.5699 444.956 29.5699C444.334 29.5699 443.719 29.4454 443.151 29.2043C442.582 28.9632 442.073 28.611 441.655 28.1702C441.237 27.7293 440.92 27.2097 440.725 26.6447C440.529 26.0796 440.459 25.4817 440.52 24.8892ZM447.483 24.8892C447.483 22.9371 446.567 21.7955 444.959 21.7955C443.345 21.7955 442.437 22.9371 442.437 24.8893C442.437 26.857 443.345 27.9898 444.959 27.9898C446.567 27.9898 447.483 26.8492 447.483 24.8892Z" fill="black"/>
<path d="M451.884 20.3895H453.671V21.8201H453.81C454.045 21.3063 454.442 20.8756 454.946 20.5879C455.449 20.3003 456.033 20.1702 456.617 20.2156C457.075 20.1827 457.535 20.2488 457.962 20.409C458.39 20.5692 458.774 20.8194 459.087 21.141C459.399 21.4627 459.632 21.8476 459.769 22.2673C459.905 22.6869 459.941 23.1305 459.874 23.5652V29.3951H458.017V24.0115C458.017 22.5643 457.36 21.8445 455.987 21.8445C455.676 21.8307 455.366 21.8813 455.078 21.993C454.789 22.1046 454.529 22.2747 454.316 22.4914C454.103 22.7082 453.941 22.9666 453.841 23.2488C453.742 23.5311 453.708 23.8306 453.741 24.1267V29.3952H451.884V20.3895Z" fill="black"/>
<path d="M470.364 18.1482V20.4314H472.402V21.9284H470.364V26.5592C470.364 27.5026 470.77 27.9156 471.694 27.9156C471.931 27.9149 472.167 27.9012 472.402 27.8746V29.3551C472.069 29.4122 471.731 29.4425 471.392 29.4459C469.327 29.4459 468.505 28.7506 468.505 27.0143V21.9284H467.012V20.4313H468.505V18.1482H470.364Z" fill="black"/>
<path d="M474.938 16.8748H476.778V21.8376H476.925C477.171 21.319 477.579 20.8858 478.093 20.5971C478.606 20.3084 479.2 20.1783 479.793 20.2244C480.248 20.2006 480.704 20.2734 481.126 20.4375C481.549 20.6016 481.928 20.8529 482.238 21.1736C482.547 21.4943 482.779 21.8764 482.916 22.2926C483.054 22.7089 483.094 23.1491 483.033 23.5817V29.3961H481.175V24.0202C481.175 22.5817 480.475 21.8532 479.163 21.8532C478.844 21.8282 478.523 21.8702 478.222 21.9763C477.922 22.0824 477.65 22.25 477.424 22.4675C477.198 22.685 477.025 22.947 476.916 23.2353C476.808 23.5235 476.766 23.8311 476.794 24.1364V29.3961H474.938L474.938 16.8748Z" fill="black"/>
<path d="M493.859 26.9646C493.607 27.7877 493.061 28.4997 492.315 28.976C491.57 29.4522 490.674 29.6625 489.783 29.5701C489.163 29.5857 488.547 29.4721 487.978 29.237C487.409 29.002 486.9 28.6511 486.486 28.2089C486.073 27.7666 485.765 27.2435 485.584 26.6759C485.403 26.1082 485.353 25.5097 485.438 24.9217C485.355 24.3319 485.406 23.7321 485.586 23.1628C485.767 22.5934 486.074 22.0679 486.485 21.6218C486.896 21.1756 487.403 20.8193 487.97 20.5769C488.538 20.3345 489.153 20.2116 489.775 20.2167C492.393 20.2167 493.972 21.9287 493.972 24.7566V25.3768H487.329V25.4764C487.3 25.8069 487.343 26.1395 487.456 26.453C487.569 26.7665 487.749 27.0539 487.985 27.2969C488.221 27.5398 488.508 27.7328 488.826 27.8636C489.144 27.9944 489.488 28.06 489.834 28.0564C490.278 28.1074 490.728 28.0308 491.127 27.8364C491.525 27.642 491.854 27.3385 492.072 26.9646L493.859 26.9646ZM487.329 24.0623H492.08C492.104 23.7601 492.061 23.4565 491.954 23.1711C491.848 22.8856 491.68 22.6247 491.462 22.405C491.244 22.1853 490.98 22.0116 490.688 21.8953C490.396 21.7789 490.081 21.7224 489.765 21.7294C489.444 21.7255 489.125 21.7832 488.828 21.8991C488.53 22.015 488.26 22.1867 488.033 22.4041C487.806 22.6216 487.627 22.8803 487.506 23.1651C487.385 23.4499 487.325 23.755 487.329 24.0623H487.329Z" fill="black"/>
</svg>
