<svg width="80" height="80" viewBox="0 0 80 80" fill="none" xmlns="http://www.w3.org/2000/svg">
<rect width="80" height="80" rx="10" fill="#E69A98"/>
<path d="M61.6667 21.25H56.6667V17.0833C56.6667 16.5308 56.4911 16.0009 56.1785 15.6102C55.866 15.2195 55.442 15 55 15H25C24.558 15 24.134 15.2195 23.8215 15.6102C23.5089 16.0009 23.3333 16.5308 23.3333 17.0833V21.25H18.3333C17.4493 21.25 16.6014 21.689 15.9763 22.4704C15.3512 23.2518 15 24.3116 15 25.4167V29.5833C15 32.346 15.878 34.9955 17.4408 36.949C18.2146 37.9163 19.1333 38.6836 20.1443 39.2071C21.1554 39.7306 22.239 40 23.3333 40H24.0938C25.0755 43.8891 26.9474 47.3334 29.4781 49.9071C32.0088 52.4809 35.0874 54.0713 38.3333 54.4818V60.8333H33.3333C32.8913 60.8333 32.4674 61.0528 32.1548 61.4435C31.8423 61.8342 31.6667 62.3641 31.6667 62.9167C31.6667 63.4692 31.8423 63.9991 32.1548 64.3898C32.4674 64.7805 32.8913 65 33.3333 65H46.6667C47.1087 65 47.5326 64.7805 47.8452 64.3898C48.1577 63.9991 48.3333 63.4692 48.3333 62.9167C48.3333 62.3641 48.1577 61.8342 47.8452 61.4435C47.5326 61.0528 47.1087 60.8333 46.6667 60.8333H41.6667V54.474C48.3208 53.6328 53.8417 47.7969 55.85 40H56.6667C58.8768 40 60.9964 38.9025 62.5592 36.949C64.122 34.9955 65 32.346 65 29.5833V25.4167C65 24.3116 64.6488 23.2518 64.0237 22.4704C63.3986 21.689 62.5507 21.25 61.6667 21.25ZM23.3333 35.8333C22.0073 35.8333 20.7355 35.1749 19.7978 34.0028C18.8601 32.8306 18.3333 31.2409 18.3333 29.5833V25.4167H23.3333V33.75C23.3333 34.4444 23.3604 35.1389 23.4146 35.8333H23.3333ZM53.3333 33.5156C53.3333 42.7656 47.2917 50.349 40 50.4167C36.4638 50.4167 33.0724 48.6607 30.5719 45.5351C28.0714 42.4095 26.6667 38.1703 26.6667 33.75V19.1667H53.3333V33.5156ZM61.6667 29.5833C61.6667 31.2409 61.1399 32.8306 60.2022 34.0028C59.2645 35.1749 57.9927 35.8333 56.6667 35.8333H56.5625C56.6309 35.0637 56.6657 34.29 56.6667 33.5156V25.4167H61.6667V29.5833Z" fill="#B31010"/>
</svg>
