<svg width="50" height="50" viewBox="0 0 50 50" fill="none" xmlns="http://www.w3.org/2000/svg">
<rect width="50" height="50" rx="10" fill="#BA2D2D" fill-opacity="0.6"/>
<path d="M35.8333 15.625H33.3333V13.5417C33.3333 13.2654 33.2455 13.0004 33.0893 12.8051C32.933 12.6097 32.721 12.5 32.5 12.5H17.5C17.279 12.5 17.067 12.6097 16.9107 12.8051C16.7545 13.0004 16.6667 13.2654 16.6667 13.5417V15.625H14.1667C13.7246 15.625 13.3007 15.8445 12.9882 16.2352C12.6756 16.6259 12.5 17.1558 12.5 17.7083V19.7917C12.5 21.173 12.939 22.4978 13.7204 23.4745C14.1073 23.9582 14.5666 24.3418 15.0722 24.6035C15.5777 24.8653 16.1195 25 16.6667 25H17.0469C17.5378 26.9446 18.4737 28.6667 19.7391 29.9536C21.0044 31.2404 22.5437 32.0356 24.1667 32.2409V35.4167H21.6667C21.4457 35.4167 21.2337 35.5264 21.0774 35.7218C20.9211 35.9171 20.8333 36.1821 20.8333 36.4583C20.8333 36.7346 20.9211 36.9996 21.0774 37.1949C21.2337 37.3903 21.4457 37.5 21.6667 37.5H28.3333C28.5543 37.5 28.7663 37.3903 28.9226 37.1949C29.0789 36.9996 29.1667 36.7346 29.1667 36.4583C29.1667 36.1821 29.0789 35.9171 28.9226 35.7218C28.7663 35.5264 28.5543 35.4167 28.3333 35.4167H25.8333V32.237C29.1604 31.8164 31.9208 28.8984 32.925 25H33.3333C34.4384 25 35.4982 24.4513 36.2796 23.4745C37.061 22.4978 37.5 21.173 37.5 19.7917V17.7083C37.5 17.1558 37.3244 16.6259 37.0118 16.2352C36.6993 15.8445 36.2754 15.625 35.8333 15.625ZM16.6667 22.9167C16.0036 22.9167 15.3677 22.5874 14.8989 22.0014C14.4301 21.4153 14.1667 20.6205 14.1667 19.7917V17.7083H16.6667V21.875C16.6667 22.2222 16.6802 22.5694 16.7073 22.9167H16.6667ZM31.6667 21.7578C31.6667 26.3828 28.6458 30.1745 25 30.2083C23.2319 30.2083 21.5362 29.3304 20.286 27.7676C19.0357 26.2048 18.3333 24.0851 18.3333 21.875V14.5833H31.6667V21.7578ZM35.8333 19.7917C35.8333 20.6205 35.5699 21.4153 35.1011 22.0014C34.6323 22.5874 33.9964 22.9167 33.3333 22.9167H33.2812C33.3154 22.5319 33.3328 22.145 33.3333 21.7578V17.7083H35.8333V19.7917Z" fill="#B31010"/>
</svg>
