<svg width="80" height="80" viewBox="0 0 80 80" fill="none" xmlns="http://www.w3.org/2000/svg">
<rect width="80" height="80" rx="10" fill="#2AB29C"/>
<path d="M40 42.0832V19.1665L56.6667 27.4998L40 35.8332" stroke="#005E4F" stroke-width="2" stroke-linecap="round" stroke-linejoin="round"/>
<path d="M57.8347 36.2957C58.9434 39.7127 59.0471 43.3762 58.1336 46.8504C57.2201 50.3246 55.3278 53.4633 52.6818 55.893C50.0358 58.3227 46.7475 59.9411 43.2082 60.5558C39.6688 61.1704 36.0274 60.7554 32.7172 59.3601C29.4069 57.9648 26.5672 55.6479 24.5358 52.6851C22.5044 49.7223 21.3668 46.2383 21.2585 42.6477C21.1502 39.057 22.0757 35.5108 23.9248 32.4309C25.7739 29.3511 28.4688 26.8672 31.6889 25.2749" stroke="#005E4F" stroke-width="2" stroke-linecap="round" stroke-linejoin="round"/>
<path d="M31.6694 35.8271C30.6254 37.2168 29.9458 38.8455 29.6924 40.565C29.439 42.2845 29.6198 44.0401 30.2185 45.6718C30.8172 47.3035 31.8147 48.7595 33.12 49.9071C34.4254 51.0547 35.9972 51.8574 37.6921 52.2421C39.3871 52.6268 41.1514 52.5812 42.8242 52.1096C44.4971 51.638 46.0254 50.7553 47.2698 49.5419C48.5142 48.3285 49.4353 46.823 49.949 45.1626C50.4627 43.5022 50.5528 41.7396 50.211 40.0355" stroke="#005E4F" stroke-width="2" stroke-linecap="round" stroke-linejoin="round"/>
</svg>
