<svg width="25" height="25" viewBox="0 0 25 25" fill="none" xmlns="http://www.w3.org/2000/svg">
<path fill-rule="evenodd" clip-rule="evenodd" d="M21.1547 4.96753C22.5734 6.45132 23.1351 8.49189 22.8401 10.4166H20.7206C21.0387 9.02197 20.6815 7.4872 19.6489 6.40722C18.1206 4.80874 15.6833 4.80874 14.155 6.40722L12.4997 8.13862L10.8443 6.40717C9.31603 4.80869 6.87867 4.80869 5.3504 6.40717C4.31784 7.4872 3.96061 9.02197 4.27872 10.4166H2.15919C1.86417 8.49189 2.42599 6.45127 3.84454 4.96748C6.02379 2.68818 9.45934 2.52363 11.8199 4.47397C12.0061 4.628 12.1832 4.79278 12.3502 4.96748L12.4997 5.12387L12.6491 4.96753C12.8187 4.79023 12.9958 4.62573 13.1794 4.47397C15.54 2.52363 18.9755 2.68813 21.1547 4.96753ZM17.5846 14.5833H20.467L12.4997 22.9166L4.53239 14.5833H7.41466L12.4997 19.9019L17.5846 14.5833ZM9.37467 6.0041L6.64655 11.4583H2.08302V13.5416H7.93512L9.37467 10.6625L12.4997 16.9125L14.1851 13.5416H22.9163V11.4583H15.2268L14.0622 9.1291L12.4997 12.2531L9.37467 6.0041Z" fill="#004813"/>
</svg>
