<svg width="25" height="25" viewBox="0 0 25 25" fill="none" xmlns="http://www.w3.org/2000/svg">
<g clip-path="url(#clip0_444_393)">
<path d="M11.3281 10.9375H1.95312C1.64232 10.9375 1.34425 11.061 1.12448 11.2807C0.904715 11.5005 0.78125 11.7986 0.78125 12.1094V22.2656C0.78125 22.5764 0.904715 22.8745 1.12448 23.0943C1.34425 23.314 1.64232 23.4375 1.95312 23.4375H11.3281C11.6389 23.4375 11.937 23.314 12.1568 23.0943C12.3765 22.8745 12.5 22.5764 12.5 22.2656V12.1094C12.5 11.7986 12.3765 11.5005 12.1568 11.2807C11.937 11.061 11.6389 10.9375 11.3281 10.9375ZM11.7188 22.2656C11.7188 22.3692 11.6776 22.4686 11.6043 22.5418C11.5311 22.6151 11.4317 22.6562 11.3281 22.6562H1.95312C1.84952 22.6562 1.75017 22.6151 1.67691 22.5418C1.60366 22.4686 1.5625 22.3692 1.5625 22.2656V12.1094C1.5625 12.0058 1.60366 11.9064 1.67691 11.8332C1.75017 11.7599 1.84952 11.7188 1.95312 11.7188H11.3281C11.4317 11.7188 11.5311 11.7599 11.6043 11.8332C11.6776 11.9064 11.7188 12.0058 11.7188 12.1094V22.2656Z" fill="#13006E"/>
<path d="M2.34375 12.5H10.9375V18.75H2.34375V12.5Z" fill="#13006E"/>
<path d="M7.42188 19.5312H5.85938C5.54857 19.5312 5.2505 19.6547 5.03073 19.8745C4.81096 20.0943 4.6875 20.3923 4.6875 20.7031C4.6875 21.0139 4.81096 21.312 5.03073 21.5318C5.2505 21.7515 5.54857 21.875 5.85938 21.875H7.42188C7.73268 21.875 8.03075 21.7515 8.25052 21.5318C8.47029 21.312 8.59375 21.0139 8.59375 20.7031C8.59375 20.3923 8.47029 20.0943 8.25052 19.8745C8.03075 19.6547 7.73268 19.5312 7.42188 19.5312Z" fill="#13006E"/>
<path d="M18.3594 15.2344H19.1406V21.2891C19.1406 21.8589 18.9143 22.4053 18.5114 22.8082C18.1085 23.2111 17.562 23.4375 16.9922 23.4375C16.4224 23.4375 15.8759 23.2111 15.473 22.8082C15.0701 22.4053 14.8438 21.8589 14.8438 21.2891V2.73438C14.8438 2.21637 14.638 1.71959 14.2717 1.35331C13.9054 0.987025 13.4086 0.78125 12.8906 0.78125H8.20312C7.68512 0.78125 7.18834 0.987025 6.82206 1.35331C6.45578 1.71959 6.25 2.21637 6.25 2.73438V9.375H5.46875V10.5469H7.8125V9.375H7.03125V2.73438C7.03125 2.42357 7.15471 2.1255 7.37448 1.90573C7.59425 1.68597 7.89232 1.5625 8.20312 1.5625H12.8906C13.2014 1.5625 13.4995 1.68597 13.7193 1.90573C13.939 2.1255 14.0625 2.42357 14.0625 2.73438V21.2891C14.0625 22.0661 14.3712 22.8112 14.9206 23.3607C15.47 23.9101 16.2152 24.2188 16.9922 24.2188C17.7692 24.2188 18.5144 23.9101 19.0638 23.3607C19.6132 22.8112 19.9219 22.0661 19.9219 21.2891V15.2344H20.7031V14.0625H18.3594V15.2344Z" fill="#13006E"/>
<path d="M23.0469 2.34375H16.7969C16.4861 2.34375 16.188 2.46722 15.9682 2.68698C15.7485 2.90675 15.625 3.20482 15.625 3.51562V12.5C15.625 12.8108 15.7485 13.1089 15.9682 13.3286C16.188 13.5484 16.4861 13.6719 16.7969 13.6719H23.0469C23.3577 13.6719 23.6557 13.5484 23.8755 13.3286C24.0953 13.1089 24.2188 12.8108 24.2188 12.5V3.51562C24.2188 3.20482 24.0953 2.90675 23.8755 2.68698C23.6557 2.46722 23.3577 2.34375 23.0469 2.34375ZM23.4375 12.5C23.4375 12.6036 23.3963 12.703 23.3231 12.7762C23.2498 12.8495 23.1505 12.8906 23.0469 12.8906H20.7031C20.3923 12.8906 20.0943 12.7672 19.8745 12.5474C19.6547 12.3276 19.5312 12.0296 19.5312 11.7188V4.29688C19.5312 3.98607 19.6547 3.688 19.8745 3.46823C20.0943 3.24846 20.3923 3.125 20.7031 3.125H23.0469C23.1505 3.125 23.2498 3.16616 23.3231 3.23941C23.3963 3.31267 23.4375 3.41202 23.4375 3.51562V12.5Z" fill="#13006E"/>
</g>
<defs>
<clipPath id="clip0_444_393">
<rect width="25" height="25" fill="white"/>
</clipPath>
</defs>
</svg>
