<svg width="25" height="25" viewBox="0 0 25 25" fill="none" xmlns="http://www.w3.org/2000/svg">
<g clip-path="url(#clip0_444_388)">
<path d="M12.5022 4.29087e-07C10.5522 -0.000510529 8.62924 0.455322 6.88694 1.33105C5.14465 2.20677 3.6314 3.47809 2.4682 5.04335C1.305 6.6086 0.524134 8.42436 0.188033 10.3454C-0.148068 12.2665 -0.0300747 14.2396 0.532577 16.1069C1.09523 17.9742 2.08693 19.6839 3.42838 21.0993C4.76982 22.5147 6.42379 23.5966 8.25803 24.2584C10.0923 24.9201 12.0559 25.1435 13.9919 24.9105C15.9278 24.6775 17.7824 23.9947 19.4074 22.9167L21.4699 24.9687H24.7397L25.0001 24.7083V21.4271L22.9167 19.3646C24.2702 17.3307 24.9948 14.9432 25.0001 12.5C25.0001 9.18479 23.6833 6.00537 21.3395 3.66117C18.9957 1.31696 15.8168 4.29087e-07 12.5022 4.29087e-07ZM12.5022 4.375C13.8907 4.37616 15.2557 4.73314 16.467 5.41186C17.6784 6.09059 18.6955 7.06842 19.4215 8.25205C20.1474 9.43567 20.5579 10.7856 20.6138 12.173C20.6697 13.5603 20.3691 14.9389 19.7407 16.1771L14.272 10.6979C14.0394 10.4654 13.7633 10.2809 13.4595 10.155C13.1557 10.0292 12.83 9.96441 12.5011 9.96441C12.1723 9.96441 11.8466 10.0292 11.5428 10.155C11.2389 10.2809 10.9628 10.4654 10.7303 10.6979C10.4977 10.9305 10.3133 11.2065 10.1874 11.5104C10.0616 11.8142 9.99679 12.1399 9.99679 12.4688C9.99679 12.7976 10.0616 13.1233 10.1874 13.4271C10.3133 13.731 10.4977 14.007 10.7303 14.2396L16.2199 19.7188C15.0707 20.3142 13.7954 20.625 12.5011 20.625C10.3465 20.625 8.28016 19.769 6.75662 18.2452C5.23308 16.7215 4.37717 14.6549 4.37717 12.5C4.37717 10.3451 5.23308 8.27849 6.75662 6.75476C8.28016 5.23102 10.3476 4.375 12.5022 4.375Z" fill="#D80600"/>
</g>
<defs>
<clipPath id="clip0_444_388">
<rect width="25" height="25" fill="white"/>
</clipPath>
</defs>
</svg>
