<svg width="16" height="16" viewBox="0 0 16 16" fill="none" xmlns="http://www.w3.org/2000/svg">
<path d="M8 0C10.1217 0 12.1566 0.842855 13.6569 2.34315C15.1571 3.84344 16 5.87827 16 8C16 10.1217 15.1571 12.1566 13.6569 13.6569C12.1566 15.1571 10.1217 16 8 16C5.87827 16 3.84344 15.1571 2.34315 13.6569C0.842855 12.1566 0 10.1217 0 8C0 5.87827 0.842855 3.84344 2.34315 2.34315C3.84344 0.842855 5.87827 0 8 0ZM8 1.5C6.27609 1.5 4.62279 2.18482 3.40381 3.40381C2.18482 4.62279 1.5 6.27609 1.5 8C1.5 9.72391 2.18482 11.3772 3.40381 12.5962C4.62279 13.8152 6.27609 14.5 8 14.5C9.72391 14.5 11.3772 13.8152 12.5962 12.5962C13.8152 11.3772 14.5 9.72391 14.5 8C14.5 6.27609 13.8152 4.62279 12.5962 3.40381C11.3772 2.18482 9.72391 1.5 8 1.5ZM8 2.75C8.14615 2.74997 8.28912 2.79263 8.41135 2.87276C8.53358 2.95288 8.62973 3.06697 8.688 3.201L9.733 5.613L12.351 5.863C12.4966 5.87688 12.6349 5.93303 12.749 6.02454C12.8631 6.11604 12.948 6.2389 12.9931 6.37801C13.0383 6.51711 13.0418 6.66638 13.0032 6.80745C12.9647 6.94853 12.8857 7.07524 12.776 7.172L10.805 8.912L11.377 11.477C11.409 11.6198 11.3986 11.7688 11.3469 11.9057C11.2953 12.0426 11.2048 12.1614 11.0865 12.2475C10.9682 12.3336 10.8273 12.3832 10.6812 12.3902C10.535 12.3972 10.39 12.3614 10.264 12.287L8 10.948L5.736 12.285C5.61007 12.3592 5.46519 12.3951 5.31918 12.3881C5.17316 12.3811 5.03237 12.3315 4.91412 12.2456C4.79587 12.1596 4.70532 12.041 4.6536 11.9043C4.60188 11.7676 4.59124 11.6187 4.623 11.476L5.194 8.911L3.224 7.171C3.11433 7.07424 3.03535 6.94753 2.99677 6.80645C2.95819 6.66538 2.9617 6.51611 3.00686 6.37701C3.05203 6.2379 3.13687 6.11504 3.25096 6.02354C3.36505 5.93203 3.50341 5.87589 3.649 5.862L6.266 5.612L7.312 3.2L7.363 3.103C7.43045 2.99489 7.52433 2.90576 7.63578 2.84399C7.74723 2.78223 7.87258 2.74988 8 2.75ZM7.466 6.616C7.41268 6.73888 7.32743 6.84523 7.2191 6.92402C7.11078 7.0028 6.98333 7.05114 6.85 7.064L5.514 7.191L6.52 8.081C6.62038 8.16982 6.69512 8.28392 6.73645 8.41143C6.77778 8.53893 6.78419 8.67518 6.755 8.806L6.463 10.116L7.619 9.434L7.709 9.388C7.81684 9.34274 7.93377 9.32333 8.05045 9.33132C8.16714 9.3393 8.28033 9.37447 8.381 9.434L9.536 10.115L9.246 8.805C9.21669 8.67427 9.22294 8.53808 9.26409 8.41058C9.30524 8.28308 9.3798 8.16893 9.48 8.08L10.485 7.191L9.15 7.064C9.01667 7.05114 8.88922 7.0028 8.7809 6.92402C8.67257 6.84523 8.58732 6.73888 8.534 6.616L8 5.385L7.466 6.616Z" fill="white"/>
</svg>
