<svg width="25" height="25" viewBox="0 0 25 25" fill="none" xmlns="http://www.w3.org/2000/svg">
<path d="M25 11.1111V8.33333H22.2222V5.55556C22.22 4.81952 21.9267 4.11426 21.4062 3.5938C20.8857 3.07334 20.1805 2.77998 19.4444 2.77778H16.6667V0H13.8889V2.77778H11.1111V0H8.33333V2.77778H5.55556C4.81952 2.77998 4.11426 3.07334 3.5938 3.5938C3.07334 4.11426 2.77998 4.81952 2.77778 5.55556V8.33333H0V11.1111H2.77778V13.8889H0V16.6667H2.77778V19.4444C2.77998 20.1805 3.07334 20.8857 3.5938 21.4062C4.11426 21.9267 4.81952 22.22 5.55556 22.2222H8.33333V25H11.1111V22.2222H13.8889V25H16.6667V22.2222H19.4444C20.1805 22.22 20.8857 21.9267 21.4062 21.4062C21.9267 20.8857 22.22 20.1805 22.2222 19.4444V16.6667H25V13.8889H22.2222V11.1111H25ZM19.4444 19.4444H5.55556V5.55556H19.4444V19.4444Z" fill="#005749"/>
</svg>
